<?xml version="1.0" encoding="utf-8"?>
<!-- Generator: Adobe Illustrator 16.0.0, SVG Export Plug-In . SVG Version: 6.00 Build 0)  -->
<!DOCTYPE svg PUBLIC "-//W3C//DTD SVG 1.1//EN" "http://www.w3.org/Graphics/SVG/1.1/DTD/svg11.dtd">
<svg version="1.1" id="Layer_1" xmlns="http://www.w3.org/2000/svg" xmlns:xlink="http://www.w3.org/1999/xlink" x="0px" y="0px"
	 width="72.667px" height="72px" viewBox="0 0 72.667 72" enable-background="new 0 0 72.667 72" xml:space="preserve">
<g id="XMLID_1164_">
	<g id="XMLID_1190_">
		<radialGradient id="XMLID_2_" cx="36.5913" cy="35.667" r="35.7973" gradientUnits="userSpaceOnUse">
			<stop  offset="0.1687" style="stop-color:#27AAE1"/>
			<stop  offset="0.5273" style="stop-color:#356D9D"/>
			<stop  offset="0.6045" style="stop-color:#336593"/>
			<stop  offset="0.7428" style="stop-color:#2F517B"/>
			<stop  offset="0.925" style="stop-color:#27305A"/>
			<stop  offset="0.9859" style="stop-color:#24244F"/>
		</radialGradient>
		<circle id="XMLID_1204_" fill="url(#XMLID_2_)" cx="36.591" cy="35.667" r="35.289"/>
		<radialGradient id="XMLID_3_" cx="43.479" cy="10.7334" r="0.8804" gradientUnits="userSpaceOnUse">
			<stop  offset="0.1141" style="stop-color:#FFFFFF"/>
			<stop  offset="0.464" style="stop-color:#D1D3D4"/>
			<stop  offset="0.9525" style="stop-color:#808285"/>
		</radialGradient>
		<circle id="XMLID_1203_" fill="url(#XMLID_3_)" cx="43.707" cy="10.904" r="0.759"/>
		<radialGradient id="XMLID_4_" cx="63.3145" cy="24.4102" r="0.8806" gradientUnits="userSpaceOnUse">
			<stop  offset="0.1141" style="stop-color:#FFFFFF"/>
			<stop  offset="0.464" style="stop-color:#D1D3D4"/>
			<stop  offset="0.9525" style="stop-color:#808285"/>
		</radialGradient>
		<circle id="XMLID_1202_" fill="url(#XMLID_4_)" cx="63.543" cy="24.582" r="0.759"/>
		<radialGradient id="XMLID_5_" cx="9.2188" cy="48.1572" r="0.8804" gradientUnits="userSpaceOnUse">
			<stop  offset="0.1141" style="stop-color:#FFFFFF"/>
			<stop  offset="0.464" style="stop-color:#D1D3D4"/>
			<stop  offset="0.9525" style="stop-color:#808285"/>
		</radialGradient>
		<circle id="XMLID_1201_" fill="url(#XMLID_5_)" cx="9.447" cy="48.327" r="0.759"/>
		<radialGradient id="XMLID_6_" cx="51.8994" cy="62.5361" r="0.8804" gradientUnits="userSpaceOnUse">
			<stop  offset="0.1141" style="stop-color:#FFFFFF"/>
			<stop  offset="0.464" style="stop-color:#D1D3D4"/>
			<stop  offset="0.9525" style="stop-color:#808285"/>
		</radialGradient>
		<circle id="XMLID_1200_" fill="url(#XMLID_6_)" cx="52.128" cy="62.707" r="0.759"/>
		<radialGradient id="XMLID_7_" cx="14.8813" cy="19.7788" r="0.8811" gradientUnits="userSpaceOnUse">
			<stop  offset="0.1141" style="stop-color:#FFFFFF"/>
			<stop  offset="0.464" style="stop-color:#D1D3D4"/>
			<stop  offset="0.9525" style="stop-color:#808285"/>
		</radialGradient>
		<circle id="XMLID_1199_" fill="url(#XMLID_7_)" cx="15.11" cy="19.951" r="0.759"/>
		<radialGradient id="XMLID_8_" cx="18.3984" cy="19.1064" r="0.44" gradientUnits="userSpaceOnUse">
			<stop  offset="0.1141" style="stop-color:#FFFFFF"/>
			<stop  offset="0.464" style="stop-color:#D1D3D4"/>
			<stop  offset="0.9525" style="stop-color:#808285"/>
		</radialGradient>
		<circle id="XMLID_1198_" fill="url(#XMLID_8_)" cx="18.512" cy="19.191" r="0.379"/>
		<radialGradient id="XMLID_9_" cx="11.1035" cy="49.3809" r="0.4402" gradientUnits="userSpaceOnUse">
			<stop  offset="0.1141" style="stop-color:#FFFFFF"/>
			<stop  offset="0.464" style="stop-color:#D1D3D4"/>
			<stop  offset="0.9525" style="stop-color:#808285"/>
		</radialGradient>
		<circle id="XMLID_1197_" fill="url(#XMLID_9_)" cx="11.218" cy="49.468" r="0.379"/>
		<radialGradient id="XMLID_10_" cx="49.9736" cy="59.9473" r="0.4404" gradientUnits="userSpaceOnUse">
			<stop  offset="0.1141" style="stop-color:#FFFFFF"/>
			<stop  offset="0.464" style="stop-color:#D1D3D4"/>
			<stop  offset="0.9525" style="stop-color:#808285"/>
		</radialGradient>
		<circle id="XMLID_1196_" fill="url(#XMLID_10_)" cx="50.088" cy="60.034" r="0.379"/>
		<radialGradient id="XMLID_11_" cx="35.7495" cy="61.8613" r="0.4409" gradientUnits="userSpaceOnUse">
			<stop  offset="0.1141" style="stop-color:#FFFFFF"/>
			<stop  offset="0.464" style="stop-color:#D1D3D4"/>
			<stop  offset="0.9525" style="stop-color:#808285"/>
		</radialGradient>
		<circle id="XMLID_1195_" fill="url(#XMLID_11_)" cx="35.864" cy="61.947" r="0.38"/>
		<radialGradient id="XMLID_12_" cx="64.5674" cy="28.1626" r="0.4402" gradientUnits="userSpaceOnUse">
			<stop  offset="0.1141" style="stop-color:#FFFFFF"/>
			<stop  offset="0.464" style="stop-color:#D1D3D4"/>
			<stop  offset="0.9525" style="stop-color:#808285"/>
		</radialGradient>
		<circle id="XMLID_1194_" fill="url(#XMLID_12_)" cx="64.681" cy="28.249" r="0.379"/>
		<radialGradient id="XMLID_13_" cx="54.4248" cy="13.2056" r="0.44" gradientUnits="userSpaceOnUse">
			<stop  offset="0.1141" style="stop-color:#FFFFFF"/>
			<stop  offset="0.464" style="stop-color:#D1D3D4"/>
			<stop  offset="0.9525" style="stop-color:#808285"/>
		</radialGradient>
		<circle id="XMLID_1193_" fill="url(#XMLID_13_)" cx="54.539" cy="13.292" r="0.379"/>
		<radialGradient id="XMLID_14_" cx="41.4072" cy="10.8188" r="0.4402" gradientUnits="userSpaceOnUse">
			<stop  offset="0.1141" style="stop-color:#FFFFFF"/>
			<stop  offset="0.464" style="stop-color:#D1D3D4"/>
			<stop  offset="0.9525" style="stop-color:#808285"/>
		</radialGradient>
		<circle id="XMLID_1192_" fill="url(#XMLID_14_)" cx="41.522" cy="10.904" r="0.379"/>
		<radialGradient id="XMLID_15_" cx="37.5127" cy="5.313" r="0.44" gradientUnits="userSpaceOnUse">
			<stop  offset="0.1141" style="stop-color:#FFFFFF"/>
			<stop  offset="0.464" style="stop-color:#D1D3D4"/>
			<stop  offset="0.9525" style="stop-color:#808285"/>
		</radialGradient>
		<circle id="XMLID_1191_" fill="url(#XMLID_15_)" cx="37.627" cy="5.398" r="0.379"/>
	</g>
	<g id="XMLID_1166_">
		
			<radialGradient id="XMLID_16_" cx="-11.3184" cy="284.5703" r="32.704" gradientTransform="matrix(1 -7.000000e-004 7.000000e-004 1 38.8745 -256.1101)" gradientUnits="userSpaceOnUse">
			<stop  offset="0.1141" style="stop-color:#FFE5C2"/>
			<stop  offset="0.6835" style="stop-color:#FEC77C"/>
			<stop  offset="0.9525" style="stop-color:#C9AC68"/>
		</radialGradient>
		<circle id="XMLID_1189_" fill="url(#XMLID_16_)" cx="36.592" cy="35.667" r="23.748"/>
		
			<radialGradient id="XMLID_17_" cx="-0.999" cy="287.6885" r="3.8838" gradientTransform="matrix(0.9542 -0.2991 0.2991 0.9542 -48.4573 -241.6822)" gradientUnits="userSpaceOnUse">
			<stop  offset="0" style="stop-color:#FFE5C2"/>
			<stop  offset="0.5476" style="stop-color:#FEC77C"/>
			<stop  offset="0.9525" style="stop-color:#C9AC68"/>
		</radialGradient>
		<circle id="XMLID_1188_" opacity="0.37" fill="url(#XMLID_17_)" cx="36.638" cy="33.129" r="3.884"/>
		
			<radialGradient id="XMLID_18_" cx="58.1973" cy="310.8389" r="4.8762" gradientTransform="matrix(0.8941 -0.2803 0.2842 0.9067 -91.5492 -224.6713)" gradientUnits="userSpaceOnUse">
			<stop  offset="0" style="stop-color:#FFE5C2"/>
			<stop  offset="0.5476" style="stop-color:#FEC77C"/>
			<stop  offset="0.9525" style="stop-color:#C9AC68"/>
		</radialGradient>
		<path id="XMLID_1187_" opacity="0.37" fill="url(#XMLID_18_)" d="M54.62,41.331c0.766,2.442-0.566,5.035-2.976,5.788
			c-2.407,0.756-4.981-0.611-5.745-3.054c-0.767-2.443,0.565-5.035,2.974-5.788C51.281,37.521,53.854,38.889,54.62,41.331z"/>
		
			<radialGradient id="XMLID_19_" cx="42.8569" cy="321.6211" r="1.1506" gradientTransform="matrix(0.8941 -0.2803 0.2842 0.9067 -91.5492 -224.6713)" gradientUnits="userSpaceOnUse">
			<stop  offset="0" style="stop-color:#FFE5C2"/>
			<stop  offset="0.5476" style="stop-color:#FEC77C"/>
			<stop  offset="0.9525" style="stop-color:#C9AC68"/>
		</radialGradient>
		<path id="XMLID_1186_" opacity="0.37" fill="url(#XMLID_19_)" d="M39.202,54.606c0.182,0.576-0.134,1.188-0.701,1.366
			c-0.569,0.179-1.177-0.145-1.357-0.722c-0.181-0.577,0.134-1.188,0.702-1.365C38.415,53.707,39.021,54.029,39.202,54.606z"/>
		
			<radialGradient id="XMLID_20_" cx="-18.8467" cy="287.8115" r="2.4385" gradientTransform="matrix(0.9542 -0.2991 0.2991 0.9542 -48.4573 -241.6822)" gradientUnits="userSpaceOnUse">
			<stop  offset="0" style="stop-color:#FFE5C2"/>
			<stop  offset="0.5476" style="stop-color:#FEC77C"/>
			<stop  offset="0.9525" style="stop-color:#C9AC68"/>
		</radialGradient>
		<circle id="XMLID_1185_" opacity="0.37" fill="url(#XMLID_20_)" cx="19.644" cy="38.584" r="2.438"/>
		
			<radialGradient id="XMLID_21_" cx="3.3164" cy="282.668" r="1.5171" gradientTransform="matrix(0.9542 -0.2991 0.2991 0.9542 -48.4573 -241.6822)" gradientUnits="userSpaceOnUse">
			<stop  offset="0" style="stop-color:#FFE5C2"/>
			<stop  offset="0.5476" style="stop-color:#FEC77C"/>
			<stop  offset="0.9525" style="stop-color:#C9AC68"/>
		</radialGradient>
		<circle id="XMLID_1184_" opacity="0.37" fill="url(#XMLID_21_)" cx="39.253" cy="27.046" r="1.517"/>
		
			<radialGradient id="XMLID_22_" cx="-4.709" cy="275.001" r="2.4385" gradientTransform="matrix(0.9542 -0.2991 0.2991 0.9542 -48.4573 -241.6822)" gradientUnits="userSpaceOnUse">
			<stop  offset="0" style="stop-color:#FFE5C2"/>
			<stop  offset="0.5476" style="stop-color:#FEC77C"/>
			<stop  offset="0.9525" style="stop-color:#C9AC68"/>
		</radialGradient>
		<circle id="XMLID_1183_" opacity="0.37" fill="url(#XMLID_22_)" cx="29.303" cy="22.132" r="2.439"/>
		
			<radialGradient id="XMLID_23_" cx="-15.436" cy="295.8408" r="1.3542" gradientTransform="matrix(0.9542 -0.2991 0.2991 0.9542 -48.4573 -241.6822)" gradientUnits="userSpaceOnUse">
			<stop  offset="0" style="stop-color:#FFE5C2"/>
			<stop  offset="0.5476" style="stop-color:#FEC77C"/>
			<stop  offset="0.9525" style="stop-color:#C9AC68"/>
		</radialGradient>
		<circle id="XMLID_1182_" opacity="0.37" fill="url(#XMLID_23_)" cx="25.3" cy="45.225" r="1.354"/>
		
			<radialGradient id="XMLID_24_" cx="-17.0205" cy="300.8955" r="1.825" gradientTransform="matrix(0.9542 -0.2991 0.2991 0.9542 -48.4573 -241.6822)" gradientUnits="userSpaceOnUse">
			<stop  offset="0" style="stop-color:#FFE5C2"/>
			<stop  offset="0.5476" style="stop-color:#FEC77C"/>
			<stop  offset="0.9525" style="stop-color:#C9AC68"/>
		</radialGradient>
		<circle id="XMLID_1181_" opacity="0.37" fill="url(#XMLID_24_)" cx="25.3" cy="50.522" r="1.825"/>
		
			<radialGradient id="XMLID_25_" cx="-17.0215" cy="283.6914" r="0.9126" gradientTransform="matrix(0.9542 -0.2991 0.2991 0.9542 -48.4573 -241.6822)" gradientUnits="userSpaceOnUse">
			<stop  offset="0" style="stop-color:#FFE5C2"/>
			<stop  offset="0.5476" style="stop-color:#FEC77C"/>
			<stop  offset="0.9525" style="stop-color:#C9AC68"/>
		</radialGradient>
		<circle id="XMLID_1180_" opacity="0.37" fill="url(#XMLID_25_)" cx="20.154" cy="34.107" r="0.913"/>
		
			<radialGradient id="XMLID_26_" cx="-8.5063" cy="278.9609" r="0.9124" gradientTransform="matrix(0.9542 -0.2991 0.2991 0.9542 -48.4573 -241.6822)" gradientUnits="userSpaceOnUse">
			<stop  offset="0" style="stop-color:#FFE5C2"/>
			<stop  offset="0.5476" style="stop-color:#FEC77C"/>
			<stop  offset="0.9525" style="stop-color:#C9AC68"/>
		</radialGradient>
		<circle id="XMLID_1179_" opacity="0.37" fill="url(#XMLID_26_)" cx="26.864" cy="27.046" r="0.913"/>
		
			<radialGradient id="XMLID_27_" cx="16.9014" cy="293.7109" r="0.9119" gradientTransform="matrix(0.9542 -0.2991 0.2991 0.9542 -48.4573 -241.6822)" gradientUnits="userSpaceOnUse">
			<stop  offset="0" style="stop-color:#FFE5C2"/>
			<stop  offset="0.5476" style="stop-color:#FEC77C"/>
			<stop  offset="0.9525" style="stop-color:#C9AC68"/>
		</radialGradient>
		<circle id="XMLID_1178_" opacity="0.37" fill="url(#XMLID_27_)" cx="55.52" cy="33.522" r="0.912"/>
		
			<radialGradient id="XMLID_28_" cx="12.4131" cy="277.582" r="1.6763" gradientTransform="matrix(0.9542 -0.2991 0.2991 0.9542 -48.4573 -241.6822)" gradientUnits="userSpaceOnUse">
			<stop  offset="0" style="stop-color:#FFE5C2"/>
			<stop  offset="0.5476" style="stop-color:#FEC77C"/>
			<stop  offset="0.9525" style="stop-color:#C9AC68"/>
		</radialGradient>
		<circle id="XMLID_1177_" opacity="0.37" fill="url(#XMLID_28_)" cx="46.413" cy="19.473" r="1.677"/>
		
			<radialGradient id="XMLID_29_" cx="-1.8027" cy="306.4102" r="1.6765" gradientTransform="matrix(0.9542 -0.2991 0.2991 0.9542 -48.4573 -241.6822)" gradientUnits="userSpaceOnUse">
			<stop  offset="0" style="stop-color:#FFE5C2"/>
			<stop  offset="0.5476" style="stop-color:#FEC77C"/>
			<stop  offset="0.9525" style="stop-color:#C9AC68"/>
		</radialGradient>
		<circle id="XMLID_1176_" opacity="0.37" fill="url(#XMLID_29_)" cx="41.47" cy="51.232" r="1.677"/>
		
			<radialGradient id="XMLID_30_" cx="3.5205" cy="272.0088" r="0.894" gradientTransform="matrix(0.9542 -0.2991 0.2991 0.9542 -48.4573 -241.6822)" gradientUnits="userSpaceOnUse">
			<stop  offset="0" style="stop-color:#FFE5C2"/>
			<stop  offset="0.5476" style="stop-color:#FEC77C"/>
			<stop  offset="0.9525" style="stop-color:#C9AC68"/>
		</radialGradient>
		<circle id="XMLID_1175_" opacity="0.37" fill="url(#XMLID_30_)" cx="36.261" cy="16.815" r="0.894"/>
		
			<radialGradient id="XMLID_31_" cx="-18.6504" cy="292.9648" r="32.664" gradientTransform="matrix(0.9542 -0.2991 0.2991 0.9542 -48.4573 -241.6822)" gradientUnits="userSpaceOnUse">
			<stop  offset="0.1141" style="stop-color:#FFE5C2"/>
			<stop  offset="0.6835" style="stop-color:#FEC77C"/>
			<stop  offset="0.9525" style="stop-color:#C9AC68"/>
		</radialGradient>
		<path id="XMLID_1172_" opacity="0.25" fill="url(#XMLID_31_)" d="M53.754,20.967c0.33,0.756,0.622,1.534,0.873,2.333
			c0.899,2.868,1.214,5.824,0.96,8.732c0.607,0.028,1.164,0.429,1.357,1.043c0.247,0.786-0.193,1.626-0.979,1.872
			c-0.281,0.088-0.57,0.087-0.836,0.016c-0.305,1.361-0.739,2.699-1.302,4.003c0.604,0.587,1.075,1.33,1.347,2.191
			c0.859,2.744-0.645,5.668-3.355,6.519c-1.405,0.44-2.862,0.236-4.062-0.445c-1.315,1.126-2.763,2.099-4.317,2.897
			c0.074,0.134,0.138,0.278,0.185,0.429c0.373,1.188-0.291,2.459-1.478,2.83c-1.188,0.372-2.458-0.291-2.831-1.479
			c-0.014-0.045-0.025-0.089-0.037-0.135c-3.972,1.137-8.094,1.165-12.004,0.118c-0.294,0.426-0.725,0.761-1.255,0.926
			c-1.267,0.398-2.62-0.31-3.017-1.575c-0.106-0.34-0.133-0.686-0.09-1.017c-0.1-0.052-0.201-0.102-0.3-0.152
			c-2.593-1.355-4.853-3.161-6.7-5.316c2.053,4.692,5.612,8.52,10.216,10.927c5.347,2.795,11.462,3.341,17.218,1.535
			c5.757-1.804,10.467-5.743,13.26-11.09c2.795-5.346,3.341-11.46,1.536-17.217C57.214,25.945,55.716,23.259,53.754,20.967z
			 M38.674,56.527c-0.873,0.273-1.808-0.221-2.084-1.102s0.209-1.819,1.083-2.094s1.808,0.219,2.085,1.102
			C40.034,55.314,39.546,56.254,38.674,56.527z"/>
		<path id="XMLID_1171_" opacity="0.56" fill="#F1F2F2" d="M18.752,21.955c1.676-1.371,3.707-0.192,2.969,2.007
			c-0.21,0.624-0.662,1.211-1.111,1.73c-0.622,0.716-1.308,1.396-2.021,1.767c-2.079,1.078-2.356-0.798-1.604-2.88
			C17.339,23.605,17.971,22.594,18.752,21.955z"/>
		<g id="XMLID_1167_">
			<radialGradient id="XMLID_32_" cx="29.1753" cy="44.2305" r="1.2243" gradientUnits="userSpaceOnUse">
				<stop  offset="0" style="stop-color:#414042"/>
				<stop  offset="1" style="stop-color:#000000"/>
			</radialGradient>
			<circle id="XMLID_1170_" fill="url(#XMLID_32_)" cx="28.724" cy="44.682" r="1.223"/>
			<radialGradient id="XMLID_33_" cx="44.8135" cy="44.1338" r="1.2243" gradientUnits="userSpaceOnUse">
				<stop  offset="0" style="stop-color:#414042"/>
				<stop  offset="1" style="stop-color:#000000"/>
			</radialGradient>
			<circle id="XMLID_1169_" fill="url(#XMLID_33_)" cx="44.459" cy="44.682" r="1.224"/>
			<radialGradient id="XMLID_34_" cx="36.5264" cy="50.9912" r="3.5858" gradientUnits="userSpaceOnUse">
				<stop  offset="0.2927" style="stop-color:#414042"/>
				<stop  offset="1" style="stop-color:#000000"/>
			</radialGradient>
			<path id="XMLID_1168_" fill="url(#XMLID_34_)" d="M36.592,52.004c1.194,0,2.16-0.969,2.16-2.161h-4.321
				C34.431,51.035,35.398,52.004,36.592,52.004z"/>
		</g>
	</g>
	<radialGradient id="XMLID_35_" cx="8.9492" cy="39.9775" r="0.3987" gradientUnits="userSpaceOnUse">
		<stop  offset="0.1141" style="stop-color:#FFFFFF"/>
		<stop  offset="0.464" style="stop-color:#D1D3D4"/>
		<stop  offset="0.9525" style="stop-color:#808285"/>
	</radialGradient>
	<circle id="XMLID_1165_" fill="url(#XMLID_35_)" cx="9.053" cy="40.055" r="0.344"/>
</g>
</svg>
