<?xml version="1.0" encoding="utf-8"?>
<!-- Generator: Adobe Illustrator 16.0.0, SVG Export Plug-In . SVG Version: 6.00 Build 0)  -->
<!DOCTYPE svg PUBLIC "-//W3C//DTD SVG 1.1//EN" "http://www.w3.org/Graphics/SVG/1.1/DTD/svg11.dtd">
<svg version="1.1" id="Layer_1" xmlns="http://www.w3.org/2000/svg" xmlns:xlink="http://www.w3.org/1999/xlink" x="0px" y="0px"
	 width="72.667px" height="72px" viewBox="0 0 72.667 72" enable-background="new 0 0 72.667 72" xml:space="preserve">
<g id="XMLID_1813_">
	<polygon id="XMLID_1831_" fill="#F7941E" points="10.102,14.388 18.655,13.865 23.382,6.716 31.048,10.551 38.714,6.716 
		43.442,13.865 51.994,14.388 52.518,22.94 59.666,27.668 55.83,35.334 59.666,43.001 52.518,47.728 51.994,56.281 43.441,56.804 
		38.714,63.953 31.047,60.117 23.382,63.953 18.655,56.804 10.102,56.281 9.579,47.728 2.43,43.001 6.265,35.334 2.43,27.668 
		9.579,22.94 	"/>
	
		<linearGradient id="XMLID_2_" gradientUnits="userSpaceOnUse" x1="714.2021" y1="-1669.311" x2="771.6351" y2="-1669.311" gradientTransform="matrix(0.7071 0.7071 -0.7071 0.7071 -1675.0964 689.929)">
		<stop  offset="0.017" style="stop-color:#FFC635"/>
		<stop  offset="0.2379" style="stop-color:#FBB040"/>
		<stop  offset="0.7876" style="stop-color:#F7941E"/>
		<stop  offset="0.9796" style="stop-color:#F47B20"/>
	</linearGradient>
	<polygon id="XMLID_1830_" fill="url(#XMLID_2_)" points="0.099,35.334 6.031,28.629 4.242,19.856 12.739,17.025 15.57,8.528 
		24.343,10.317 31.048,4.385 37.753,10.317 46.527,8.528 49.357,17.025 57.854,19.856 56.064,28.629 61.998,35.334 56.064,42.039 
		57.854,50.813 49.357,53.644 46.527,62.141 37.753,60.351 31.048,66.283 24.343,60.351 15.57,62.141 12.739,53.644 4.242,50.813 
		6.031,42.039 	"/>
	<radialGradient id="XMLID_3_" cx="26.498" cy="30.9814" r="23.4437" gradientUnits="userSpaceOnUse">
		<stop  offset="0.017" style="stop-color:#FFC635"/>
		<stop  offset="0.2379" style="stop-color:#FBB040"/>
		<stop  offset="0.7876" style="stop-color:#F7941E"/>
		<stop  offset="0.9796" style="stop-color:#F47B20"/>
	</radialGradient>
	<circle id="XMLID_1829_" fill="url(#XMLID_3_)" cx="31.048" cy="35.334" r="23.444"/>
	<g id="XMLID_1824_">
		<g id="XMLID_1826_">
			<radialGradient id="XMLID_4_" cx="20.1763" cy="30.2041" r="1.7939" gradientUnits="userSpaceOnUse">
				<stop  offset="0" style="stop-color:#414042"/>
				<stop  offset="1" style="stop-color:#000000"/>
			</radialGradient>
			<circle id="XMLID_1828_" fill="url(#XMLID_4_)" cx="19.515" cy="30.865" r="1.794"/>
			<radialGradient id="XMLID_5_" cx="43.1006" cy="30.0625" r="1.7939" gradientUnits="userSpaceOnUse">
				<stop  offset="0" style="stop-color:#414042"/>
				<stop  offset="1" style="stop-color:#000000"/>
			</radialGradient>
			<circle id="XMLID_1827_" fill="url(#XMLID_5_)" cx="42.581" cy="30.865" r="1.794"/>
		</g>
		<radialGradient id="XMLID_6_" cx="30.9009" cy="41.7129" r="7.4765" gradientUnits="userSpaceOnUse">
			<stop  offset="0" style="stop-color:#414042"/>
			<stop  offset="1" style="stop-color:#000000"/>
		</radialGradient>
		<rect id="XMLID_1825_" x="26.139" y="40.968" fill="url(#XMLID_6_)" width="9.817" height="1.402"/>
	</g>
	<linearGradient id="XMLID_7_" gradientUnits="userSpaceOnUse" x1="18.1563" y1="45.7188" x2="53.6621" y2="45.7188">
		<stop  offset="0" style="stop-color:#FFFFFF"/>
		<stop  offset="1" style="stop-color:#D1D3D4"/>
	</linearGradient>
	<path id="XMLID_1823_" fill="url(#XMLID_7_)" d="M18.156,54.916c3.699,2.439,8.129,3.861,12.892,3.861
		c10.804,0,19.899-7.309,22.614-17.252c-0.807-0.349-1.697-0.543-2.635-0.543c-0.098,0-0.193,0.011-0.289,0.015
		c-1.123-4.778-5.41-8.338-10.531-8.338c-5.977,0-10.82,4.845-10.82,10.82c0,1.135,0.175,2.229,0.5,3.256
		c-2.411,1.001-4.106,3.377-4.106,6.149c0,0.535,0.07,1.052,0.189,1.55h-5.637C19.555,54.435,18.818,54.607,18.156,54.916z"/>
	<linearGradient id="XMLID_8_" gradientUnits="userSpaceOnUse" x1="17.7212" y1="50.2188" x2="57.4673" y2="50.2188">
		<stop  offset="0" style="stop-color:#D1D3D4"/>
		<stop  offset="1" style="stop-color:#FFFFFF"/>
	</linearGradient>
	<path id="XMLID_1822_" fill="url(#XMLID_8_)" d="M68.393,55.905c0.113-0.49,0.182-0.999,0.182-1.524
		c0-3.678-2.98-6.658-6.658-6.658c-0.617,0-1.209,0.09-1.773,0.246c-0.555-3.119-3.273-5.49-6.551-5.49
		c-0.098,0-0.193,0.012-0.289,0.016c-1.123-4.779-5.41-8.339-10.531-8.339c-5.977,0-10.821,4.845-10.821,10.82
		c0,1.135,0.177,2.229,0.5,3.256c-2.41,1.002-4.105,3.377-4.105,6.149c0,0.535,0.069,1.053,0.189,1.551h-5.638
		c-2.858,0-5.176,2.317-5.176,5.176l0,0c0,2.859,2.317,5.176,5.176,5.176h6.808h19.233h18.389c2.895,0,5.242-2.347,5.242-5.243l0,0
		C72.568,58.51,70.775,56.397,68.393,55.905z"/>
	<path id="XMLID_1821_" fill="#E6E7E8" d="M68.393,55.905c0.113-0.49,0.182-0.999,0.182-1.524c0-3.678-2.98-6.658-6.658-6.658
		c-0.617,0-1.209,0.09-1.773,0.246c-0.549-3.093-3.227-5.448-6.467-5.488c-0.193,10.433-6.268,19.426-15.048,23.803h10.31h18.389
		c2.895,0,5.242-2.347,5.242-5.243l0,0C72.568,58.51,70.775,56.397,68.393,55.905z"/>
	<path id="XMLID_1820_" fill="#F1F2F2" d="M67.375,52.411c0.359,1.41-1.133,2.566-2.373,1.635c-0.352-0.264-0.596-0.686-0.795-1.094
		c-0.275-0.563-0.502-1.164-0.51-1.722c-0.023-1.627,1.346-1.452,2.5-0.534C66.738,51.127,67.209,51.754,67.375,52.411z"/>
	<path id="XMLID_1819_" fill="#F1F2F2" d="M21.422,56.946c1.391-0.428,2.62,1.004,1.752,2.29c-0.247,0.363-0.656,0.63-1.054,0.849
		c-0.548,0.302-1.137,0.559-1.694,0.595c-1.624,0.104-1.518-1.271-0.658-2.471C20.171,57.647,20.775,57.146,21.422,56.946z"/>
	<path id="XMLID_1818_" fill="#FFFFFF" d="M39.414,35.758c2.006-0.452,3.625,1.73,2.285,3.464c-0.38,0.492-0.982,0.823-1.564,1.091
		c-0.803,0.368-1.658,0.667-2.45,0.654c-2.311-0.036-2.042-1.985-0.722-3.598C37.582,36.614,38.478,35.969,39.414,35.758z"/>
	<g id="XMLID_1815_">
		<radialGradient id="XMLID_9_" cx="40.5137" cy="51.2871" r="3.7311" gradientUnits="userSpaceOnUse">
			<stop  offset="0" style="stop-color:#414042"/>
			<stop  offset="1" style="stop-color:#000000"/>
		</radialGradient>
		<rect id="XMLID_1817_" x="38.137" y="50.915" fill="url(#XMLID_9_)" width="4.899" height="0.7"/>
		<radialGradient id="XMLID_10_" cx="54.5137" cy="51.2871" r="3.7318" gradientUnits="userSpaceOnUse">
			<stop  offset="0" style="stop-color:#414042"/>
			<stop  offset="1" style="stop-color:#000000"/>
		</radialGradient>
		<rect id="XMLID_1816_" x="52.137" y="50.915" fill="url(#XMLID_10_)" width="4.9" height="0.7"/>
	</g>
	<radialGradient id="XMLID_11_" cx="47.4922" cy="56.3643" r="5.256" gradientUnits="userSpaceOnUse">
		<stop  offset="0.2927" style="stop-color:#414042"/>
		<stop  offset="1" style="stop-color:#000000"/>
	</radialGradient>
	<path id="XMLID_1814_" fill="url(#XMLID_11_)" d="M47.588,57.85c1.748,0,3.166-1.419,3.166-3.168H44.42
		C44.42,56.431,45.838,57.85,47.588,57.85z"/>
</g>
</svg>
