<?xml version="1.0" encoding="utf-8"?>
<!-- Generator: Adobe Illustrator 16.0.0, SVG Export Plug-In . SVG Version: 6.00 Build 0)  -->
<!DOCTYPE svg PUBLIC "-//W3C//DTD SVG 1.1//EN" "http://www.w3.org/Graphics/SVG/1.1/DTD/svg11.dtd">
<svg version="1.1" id="Layer_1" xmlns="http://www.w3.org/2000/svg" xmlns:xlink="http://www.w3.org/1999/xlink" x="0px" y="0px"
	 width="72.667px" height="72px" viewBox="0 0 72.667 72" enable-background="new 0 0 72.667 72" xml:space="preserve">
<g id="XMLID_1318_">
	<g id="XMLID_1360_">
		<radialGradient id="XMLID_2_" cx="34.5469" cy="35.2002" r="34.6088" gradientUnits="userSpaceOnUse">
			<stop  offset="0.1687" style="stop-color:#27AAE1"/>
			<stop  offset="0.5273" style="stop-color:#356D9D"/>
			<stop  offset="0.6045" style="stop-color:#336593"/>
			<stop  offset="0.7428" style="stop-color:#2F517B"/>
			<stop  offset="0.925" style="stop-color:#27305A"/>
			<stop  offset="0.9859" style="stop-color:#24244F"/>
		</radialGradient>
		<circle id="XMLID_1374_" fill="url(#XMLID_2_)" cx="34.547" cy="35.201" r="34.117"/>
		<radialGradient id="XMLID_3_" cx="41.2061" cy="11.0947" r="0.8513" gradientUnits="userSpaceOnUse">
			<stop  offset="0.1141" style="stop-color:#FFFFFF"/>
			<stop  offset="0.464" style="stop-color:#D1D3D4"/>
			<stop  offset="0.9525" style="stop-color:#808285"/>
		</radialGradient>
		<circle id="XMLID_1373_" fill="url(#XMLID_3_)" cx="41.427" cy="11.26" r="0.734"/>
		<radialGradient id="XMLID_4_" cx="60.3838" cy="24.3174" r="0.851" gradientUnits="userSpaceOnUse">
			<stop  offset="0.1141" style="stop-color:#FFFFFF"/>
			<stop  offset="0.464" style="stop-color:#D1D3D4"/>
			<stop  offset="0.9525" style="stop-color:#808285"/>
		</radialGradient>
		<circle id="XMLID_1372_" fill="url(#XMLID_4_)" cx="60.604" cy="24.482" r="0.733"/>
		<radialGradient id="XMLID_5_" cx="8.083" cy="47.2744" r="0.8519" gradientUnits="userSpaceOnUse">
			<stop  offset="0.1141" style="stop-color:#FFFFFF"/>
			<stop  offset="0.464" style="stop-color:#D1D3D4"/>
			<stop  offset="0.9525" style="stop-color:#808285"/>
		</radialGradient>
		<circle id="XMLID_1371_" fill="url(#XMLID_5_)" cx="8.304" cy="47.44" r="0.734"/>
		<radialGradient id="XMLID_6_" cx="49.3467" cy="61.1758" r="0.8517" gradientUnits="userSpaceOnUse">
			<stop  offset="0.1141" style="stop-color:#FFFFFF"/>
			<stop  offset="0.464" style="stop-color:#D1D3D4"/>
			<stop  offset="0.9525" style="stop-color:#808285"/>
		</radialGradient>
		<circle id="XMLID_1370_" fill="url(#XMLID_6_)" cx="49.567" cy="61.342" r="0.733"/>
		<radialGradient id="XMLID_7_" cx="13.5576" cy="19.8403" r="0.8517" gradientUnits="userSpaceOnUse">
			<stop  offset="0.1141" style="stop-color:#FFFFFF"/>
			<stop  offset="0.464" style="stop-color:#D1D3D4"/>
			<stop  offset="0.9525" style="stop-color:#808285"/>
		</radialGradient>
		<circle id="XMLID_1369_" fill="url(#XMLID_7_)" cx="13.779" cy="20.005" r="0.734"/>
		<radialGradient id="XMLID_8_" cx="16.958" cy="19.1899" r="0.4261" gradientUnits="userSpaceOnUse">
			<stop  offset="0.1141" style="stop-color:#FFFFFF"/>
			<stop  offset="0.464" style="stop-color:#D1D3D4"/>
			<stop  offset="0.9525" style="stop-color:#808285"/>
		</radialGradient>
		<circle id="XMLID_1368_" fill="url(#XMLID_8_)" cx="17.069" cy="19.272" r="0.367"/>
		<radialGradient id="XMLID_9_" cx="9.9058" cy="48.459" r="0.4256" gradientUnits="userSpaceOnUse">
			<stop  offset="0.1141" style="stop-color:#FFFFFF"/>
			<stop  offset="0.464" style="stop-color:#D1D3D4"/>
			<stop  offset="0.9525" style="stop-color:#808285"/>
		</radialGradient>
		<circle id="XMLID_1367_" fill="url(#XMLID_9_)" cx="10.016" cy="48.542" r="0.367"/>
		<radialGradient id="XMLID_10_" cx="47.4844" cy="58.6738" r="0.4261" gradientUnits="userSpaceOnUse">
			<stop  offset="0.1141" style="stop-color:#FFFFFF"/>
			<stop  offset="0.464" style="stop-color:#D1D3D4"/>
			<stop  offset="0.9525" style="stop-color:#808285"/>
		</radialGradient>
		<circle id="XMLID_1366_" fill="url(#XMLID_10_)" cx="47.595" cy="58.758" r="0.367"/>
		<radialGradient id="XMLID_11_" cx="33.7329" cy="60.5244" r="0.426" gradientUnits="userSpaceOnUse">
			<stop  offset="0.1141" style="stop-color:#FFFFFF"/>
			<stop  offset="0.464" style="stop-color:#D1D3D4"/>
			<stop  offset="0.9525" style="stop-color:#808285"/>
		</radialGradient>
		<circle id="XMLID_1365_" fill="url(#XMLID_11_)" cx="33.843" cy="60.607" r="0.366"/>
		<radialGradient id="XMLID_12_" cx="61.5947" cy="27.9453" r="0.4252" gradientUnits="userSpaceOnUse">
			<stop  offset="0.1141" style="stop-color:#FFFFFF"/>
			<stop  offset="0.464" style="stop-color:#D1D3D4"/>
			<stop  offset="0.9525" style="stop-color:#808285"/>
		</radialGradient>
		<circle id="XMLID_1364_" fill="url(#XMLID_12_)" cx="61.705" cy="28.028" r="0.367"/>
		<radialGradient id="XMLID_13_" cx="51.7871" cy="13.4844" r="0.4261" gradientUnits="userSpaceOnUse">
			<stop  offset="0.1141" style="stop-color:#FFFFFF"/>
			<stop  offset="0.464" style="stop-color:#D1D3D4"/>
			<stop  offset="0.9525" style="stop-color:#808285"/>
		</radialGradient>
		<circle id="XMLID_1363_" fill="url(#XMLID_13_)" cx="51.897" cy="13.569" r="0.367"/>
		<radialGradient id="XMLID_14_" cx="39.2036" cy="11.1782" r="0.4252" gradientUnits="userSpaceOnUse">
			<stop  offset="0.1141" style="stop-color:#FFFFFF"/>
			<stop  offset="0.464" style="stop-color:#D1D3D4"/>
			<stop  offset="0.9525" style="stop-color:#808285"/>
		</radialGradient>
		<circle id="XMLID_1362_" fill="url(#XMLID_14_)" cx="39.314" cy="11.26" r="0.367"/>
		<radialGradient id="XMLID_15_" cx="35.4375" cy="5.8545" r="0.4256" gradientUnits="userSpaceOnUse">
			<stop  offset="0.1141" style="stop-color:#FFFFFF"/>
			<stop  offset="0.464" style="stop-color:#D1D3D4"/>
			<stop  offset="0.9525" style="stop-color:#808285"/>
		</radialGradient>
		<circle id="XMLID_1361_" fill="url(#XMLID_15_)" cx="35.548" cy="5.938" r="0.367"/>
	</g>
	<g id="XMLID_1336_">
		
			<radialGradient id="XMLID_16_" cx="-13.9487" cy="279.3906" r="32.9811" gradientTransform="matrix(0.9542 -0.2991 0.2991 0.9542 -48.4573 -241.6822)" gradientUnits="userSpaceOnUse">
			<stop  offset="0.1141" style="stop-color:#FFE5C2"/>
			<stop  offset="0.6835" style="stop-color:#FEC77C"/>
			<stop  offset="0.9525" style="stop-color:#C9AC68"/>
		</radialGradient>
		<circle id="XMLID_1359_" fill="url(#XMLID_16_)" cx="34.547" cy="35.201" r="23.949"/>
		<g id="XMLID_1355_">
			<radialGradient id="XMLID_17_" cx="24.6274" cy="30.1016" r="6.1093" gradientUnits="userSpaceOnUse">
				<stop  offset="0" style="stop-color:#414042"/>
				<stop  offset="1" style="stop-color:#000000"/>
			</radialGradient>
			<path id="XMLID_1358_" fill="url(#XMLID_17_)" d="M27.647,28.147L27.647,28.147c0,1.606-1.303,2.909-2.909,2.909
				c-1.606,0-2.909-1.302-2.909-2.909l0,0h-0.772l0,0c0,2.033,1.648,3.681,3.681,3.681c2.032,0,3.681-1.648,3.681-3.681l0,0H27.647z
				"/>
			<radialGradient id="XMLID_18_" cx="44.2461" cy="30.1016" r="6.1087" gradientUnits="userSpaceOnUse">
				<stop  offset="0" style="stop-color:#414042"/>
				<stop  offset="1" style="stop-color:#000000"/>
			</radialGradient>
			<path id="XMLID_1357_" fill="url(#XMLID_18_)" d="M47.265,28.147L47.265,28.147c0,1.606-1.303,2.909-2.908,2.909
				c-1.606,0-2.909-1.302-2.909-2.909l0,0h-0.772l0,0c0,2.033,1.648,3.681,3.681,3.681c2.032,0,3.681-1.648,3.681-3.681l0,0H47.265z
				"/>
			<radialGradient id="XMLID_19_" cx="34.4512" cy="41.6924" r="4.9904" gradientUnits="userSpaceOnUse">
				<stop  offset="0" style="stop-color:#414042"/>
				<stop  offset="1" style="stop-color:#000000"/>
			</radialGradient>
			<path id="XMLID_1356_" fill="url(#XMLID_19_)" d="M36.809,40.709c-0.533,0.66-1.348,1.08-2.262,1.08
				c-0.915,0-1.729-0.42-2.263-1.08h-0.931c0.634,1.106,1.827,1.853,3.194,1.853c1.367,0,2.56-0.746,3.194-1.853H36.809z"/>
		</g>
		
			<radialGradient id="XMLID_20_" cx="2.1035" cy="279.7754" r="4.9185" gradientTransform="matrix(0.9542 -0.2991 0.2991 0.9542 -48.4573 -241.6822)" gradientUnits="userSpaceOnUse">
			<stop  offset="0" style="stop-color:#FFE5C2"/>
			<stop  offset="0.5476" style="stop-color:#FEC77C"/>
			<stop  offset="0.9525" style="stop-color:#C9AC68"/>
		</radialGradient>
		<circle id="XMLID_1354_" opacity="0.37" fill="url(#XMLID_20_)" cx="37.231" cy="24.649" r="4.919"/>
		
			<radialGradient id="XMLID_21_" cx="57.2344" cy="312.126" r="4.918" gradientTransform="matrix(0.8941 -0.2803 0.2842 0.9067 -91.5492 -224.6713)" gradientUnits="userSpaceOnUse">
			<stop  offset="0" style="stop-color:#FFE5C2"/>
			<stop  offset="0.5476" style="stop-color:#FEC77C"/>
			<stop  offset="0.9525" style="stop-color:#C9AC68"/>
		</radialGradient>
		<path id="XMLID_1353_" opacity="0.37" fill="url(#XMLID_21_)" d="M52.727,40.912c0.772,2.463-0.57,5.077-2.999,5.838
			c-2.429,0.762-5.022-0.617-5.795-3.081c-0.771-2.463,0.571-5.077,2.999-5.838C49.361,37.071,51.955,38.45,52.727,40.912z"/>
		
			<radialGradient id="XMLID_22_" cx="40.8853" cy="320.6758" r="1.1604" gradientTransform="matrix(0.8941 -0.2803 0.2842 0.9067 -91.5492 -224.6713)" gradientUnits="userSpaceOnUse">
			<stop  offset="0" style="stop-color:#FFE5C2"/>
			<stop  offset="0.5476" style="stop-color:#FEC77C"/>
			<stop  offset="0.9525" style="stop-color:#C9AC68"/>
		</radialGradient>
		<path id="XMLID_1352_" opacity="0.37" fill="url(#XMLID_22_)" d="M37.18,54.3c0.183,0.58-0.135,1.197-0.708,1.377
			c-0.574,0.179-1.185-0.146-1.368-0.726c-0.183-0.582,0.134-1.198,0.708-1.378C36.385,53.394,36.998,53.719,37.18,54.3z"/>
		
			<radialGradient id="XMLID_23_" cx="-20.8013" cy="286.7354" r="2.4597" gradientTransform="matrix(0.9542 -0.2991 0.2991 0.9542 -48.4573 -241.6822)" gradientUnits="userSpaceOnUse">
			<stop  offset="0" style="stop-color:#FFE5C2"/>
			<stop  offset="0.5476" style="stop-color:#FEC77C"/>
			<stop  offset="0.9525" style="stop-color:#C9AC68"/>
		</radialGradient>
		<circle id="XMLID_1351_" opacity="0.37" fill="url(#XMLID_23_)" cx="17.458" cy="38.143" r="2.459"/>
		
			<radialGradient id="XMLID_24_" cx="-0.7959" cy="290.4287" r="2.4597" gradientTransform="matrix(0.9542 -0.2991 0.2991 0.9542 -48.4573 -241.6822)" gradientUnits="userSpaceOnUse">
			<stop  offset="0" style="stop-color:#FFE5C2"/>
			<stop  offset="0.5476" style="stop-color:#FEC77C"/>
			<stop  offset="0.9525" style="stop-color:#C9AC68"/>
		</radialGradient>
		<circle id="XMLID_1350_" opacity="0.37" fill="url(#XMLID_24_)" cx="37.651" cy="35.682" r="2.459"/>
		
			<radialGradient id="XMLID_25_" cx="-6.5444" cy="273.8174" r="2.4597" gradientTransform="matrix(0.9542 -0.2991 0.2991 0.9542 -48.4573 -241.6822)" gradientUnits="userSpaceOnUse">
			<stop  offset="0" style="stop-color:#FFE5C2"/>
			<stop  offset="0.5476" style="stop-color:#FEC77C"/>
			<stop  offset="0.9525" style="stop-color:#C9AC68"/>
		</radialGradient>
		<circle id="XMLID_1349_" opacity="0.37" fill="url(#XMLID_25_)" cx="27.197" cy="21.55" r="2.459"/>
		
			<radialGradient id="XMLID_26_" cx="-7.375" cy="288.5879" r="1.8401" gradientTransform="matrix(0.9542 -0.2991 0.2991 0.9542 -48.4573 -241.6822)" gradientUnits="userSpaceOnUse">
			<stop  offset="0" style="stop-color:#FFE5C2"/>
			<stop  offset="0.5476" style="stop-color:#FEC77C"/>
			<stop  offset="0.9525" style="stop-color:#C9AC68"/>
		</radialGradient>
		<circle id="XMLID_1348_" opacity="0.37" fill="url(#XMLID_26_)" cx="30.823" cy="35.894" r="1.84"/>
		
			<radialGradient id="XMLID_27_" cx="-18.96" cy="299.9287" r="1.8403" gradientTransform="matrix(0.9542 -0.2991 0.2991 0.9542 -48.4573 -241.6822)" gradientUnits="userSpaceOnUse">
			<stop  offset="0" style="stop-color:#FFE5C2"/>
			<stop  offset="0.5476" style="stop-color:#FEC77C"/>
			<stop  offset="0.9525" style="stop-color:#C9AC68"/>
		</radialGradient>
		<circle id="XMLID_1347_" opacity="0.37" fill="url(#XMLID_27_)" cx="23.161" cy="50.181" r="1.84"/>
		
			<radialGradient id="XMLID_28_" cx="-18.9609" cy="282.5811" r="0.9204" gradientTransform="matrix(0.9542 -0.2991 0.2991 0.9542 -48.4573 -241.6822)" gradientUnits="userSpaceOnUse">
			<stop  offset="0" style="stop-color:#FFE5C2"/>
			<stop  offset="0.5476" style="stop-color:#FEC77C"/>
			<stop  offset="0.9525" style="stop-color:#C9AC68"/>
		</radialGradient>
		<circle id="XMLID_1346_" opacity="0.37" fill="url(#XMLID_28_)" cx="17.971" cy="33.627" r="0.92"/>
		
			<radialGradient id="XMLID_29_" cx="-10.374" cy="277.8105" r="0.9199" gradientTransform="matrix(0.9542 -0.2991 0.2991 0.9542 -48.4573 -241.6822)" gradientUnits="userSpaceOnUse">
			<stop  offset="0" style="stop-color:#FFE5C2"/>
			<stop  offset="0.5476" style="stop-color:#FEC77C"/>
			<stop  offset="0.9525" style="stop-color:#C9AC68"/>
		</radialGradient>
		<circle id="XMLID_1345_" opacity="0.37" fill="url(#XMLID_29_)" cx="24.738" cy="26.507" r="0.92"/>
		
			<radialGradient id="XMLID_30_" cx="15.2461" cy="292.6855" r="0.9202" gradientTransform="matrix(0.9542 -0.2991 0.2991 0.9542 -48.4573 -241.6822)" gradientUnits="userSpaceOnUse">
			<stop  offset="0" style="stop-color:#FFE5C2"/>
			<stop  offset="0.5476" style="stop-color:#FEC77C"/>
			<stop  offset="0.9525" style="stop-color:#C9AC68"/>
		</radialGradient>
		<circle id="XMLID_1344_" opacity="0.37" fill="url(#XMLID_30_)" cx="53.634" cy="33.038" r="0.92"/>
		
			<radialGradient id="XMLID_31_" cx="10.7227" cy="276.4189" r="1.6907" gradientTransform="matrix(0.9542 -0.2991 0.2991 0.9542 -48.4573 -241.6822)" gradientUnits="userSpaceOnUse">
			<stop  offset="0" style="stop-color:#FFE5C2"/>
			<stop  offset="0.5476" style="stop-color:#FEC77C"/>
			<stop  offset="0.9525" style="stop-color:#C9AC68"/>
		</radialGradient>
		<circle id="XMLID_1343_" opacity="0.37" fill="url(#XMLID_31_)" cx="44.452" cy="18.87" r="1.691"/>
		
			<radialGradient id="XMLID_32_" cx="-3.6133" cy="305.4912" r="1.6909" gradientTransform="matrix(0.9542 -0.2991 0.2991 0.9542 -48.4573 -241.6822)" gradientUnits="userSpaceOnUse">
			<stop  offset="0" style="stop-color:#FFE5C2"/>
			<stop  offset="0.5476" style="stop-color:#FEC77C"/>
			<stop  offset="0.9525" style="stop-color:#C9AC68"/>
		</radialGradient>
		<circle id="XMLID_1342_" opacity="0.37" fill="url(#XMLID_32_)" cx="39.468" cy="50.897" r="1.691"/>
		
			<radialGradient id="XMLID_33_" cx="1.7549" cy="270.7998" r="0.9016" gradientTransform="matrix(0.9542 -0.2991 0.2991 0.9542 -48.4573 -241.6822)" gradientUnits="userSpaceOnUse">
			<stop  offset="0" style="stop-color:#FFE5C2"/>
			<stop  offset="0.5476" style="stop-color:#FEC77C"/>
			<stop  offset="0.9525" style="stop-color:#C9AC68"/>
		</radialGradient>
		<circle id="XMLID_1341_" opacity="0.37" fill="url(#XMLID_33_)" cx="34.214" cy="16.19" r="0.902"/>
		
			<radialGradient id="XMLID_34_" cx="-20.6035" cy="291.9326" r="32.9387" gradientTransform="matrix(0.9542 -0.2991 0.2991 0.9542 -48.4573 -241.6822)" gradientUnits="userSpaceOnUse">
			<stop  offset="0.1141" style="stop-color:#FFE5C2"/>
			<stop  offset="0.6835" style="stop-color:#FEC77C"/>
			<stop  offset="0.9525" style="stop-color:#C9AC68"/>
		</radialGradient>
		<path id="XMLID_1338_" opacity="0.25" fill="url(#XMLID_34_)" d="M51.853,20.377c0.335,0.762,0.63,1.546,0.881,2.352
			c0.907,2.893,1.226,5.875,0.969,8.805c0.614,0.028,1.175,0.433,1.369,1.053c0.249,0.792-0.194,1.639-0.986,1.887
			c-0.284,0.09-0.576,0.089-0.843,0.016c-0.308,1.373-0.747,2.724-1.313,4.037c0.608,0.593,1.084,1.342,1.355,2.212
			c0.868,2.766-0.648,5.715-3.382,6.571c-1.417,0.444-2.887,0.239-4.095-0.447c-1.328,1.136-2.787,2.114-4.355,2.921
			c0.075,0.136,0.139,0.279,0.187,0.433c0.375,1.198-0.294,2.478-1.492,2.854c-1.198,0.375-2.479-0.293-2.854-1.491
			c-0.014-0.044-0.025-0.09-0.037-0.136c-4.004,1.147-8.162,1.176-12.104,0.12c-0.296,0.43-0.732,0.766-1.268,0.934
			c-1.275,0.399-2.64-0.313-3.041-1.59c-0.106-0.343-0.134-0.691-0.09-1.024c-0.102-0.052-0.204-0.102-0.303-0.154
			c-2.614-1.366-4.892-3.188-6.756-5.362c2.069,4.733,5.658,8.594,10.302,11.021c5.392,2.818,11.558,3.367,17.364,1.549
			c5.804-1.82,10.553-5.791,13.372-11.184c2.817-5.392,3.367-11.558,1.548-17.363C55.343,25.396,53.833,22.687,51.853,20.377z
			 M36.646,56.236c-0.88,0.276-1.823-0.223-2.101-1.11c-0.279-0.888,0.21-1.836,1.091-2.112c0.881-0.275,1.824,0.222,2.102,1.11
			C38.018,55.014,37.527,55.961,36.646,56.236z"/>
		<path id="XMLID_1337_" opacity="0.56" fill="#F1F2F2" d="M16.558,21.373c1.691-1.383,3.739-0.194,2.994,2.023
			c-0.212,0.63-0.667,1.222-1.121,1.746c-0.626,0.722-1.319,1.409-2.038,1.782c-2.095,1.087-2.376-0.806-1.616-2.903
			C15.132,23.036,15.77,22.018,16.558,21.373z"/>
	</g>
	<g id="XMLID_1319_">
		<g id="XMLID_1333_">
			<radialGradient id="XMLID_35_" cx="11.7769" cy="47.627" r="25.6848" gradientUnits="userSpaceOnUse">
				<stop  offset="0" style="stop-color:#E6E7E8"/>
				<stop  offset="1" style="stop-color:#939598"/>
			</radialGradient>
			<path id="XMLID_1335_" opacity="0.6" fill="url(#XMLID_35_)" d="M7.542,45.917c0.02,0,0.039,0.003,0.06,0.003
				c-0.039-0.327-0.06-0.658-0.06-0.993c0-4.739,3.842-8.581,8.58-8.581c4.108,0,7.541,2.89,8.382,6.744
				c1.042-0.632,2.261-1.004,3.569-1.004c3.809,0,6.895,3.087,6.895,6.894c0,0.137-0.012,0.271-0.02,0.406
				c0.33-0.063,0.669-0.098,1.016-0.098c3.003,0,5.439,2.435,5.439,5.438s-2.436,5.439-5.439,5.439
				c-0.766,0-1.491-0.159-2.151-0.445c-1.237,1.175-2.904,1.901-4.744,1.901c-0.225,0-0.448-0.015-0.67-0.035
				c-1.264,1.473-3.135,2.408-5.229,2.408c-1.703,0-3.258-0.619-4.46-1.642c-1.176,0.93-2.658,1.489-4.272,1.489
				c-2.837,0-5.273-1.716-6.331-4.165c-0.187,0.014-0.374,0.028-0.564,0.028c-3.808,0-6.895-3.087-6.895-6.895
				S3.734,45.917,7.542,45.917z"/>
			<path id="XMLID_1334_" opacity="0.78" fill="#E6E7E8" d="M24.068,41.69c-1.277-3.134-4.353-5.345-7.947-5.345
				c-4.738,0-8.58,3.842-8.58,8.581c0,0.335,0.021,0.666,0.06,0.993c-0.021,0-0.04-0.003-0.06-0.003
				c-3.808,0-6.895,3.087-6.895,6.895s3.087,6.895,6.895,6.895c0.012,0,0.022,0,0.034-0.001
				C16.352,58.004,23.134,50.717,24.068,41.69z"/>
		</g>
		<linearGradient id="XMLID_36_" gradientUnits="userSpaceOnUse" x1="30.2007" y1="43.3125" x2="60.9556" y2="43.3125">
			<stop  offset="0" style="stop-color:#D1D3D4"/>
			<stop  offset="1" style="stop-color:#FFFFFF"/>
		</linearGradient>
		<path id="XMLID_1332_" opacity="0.51" fill="url(#XMLID_36_)" d="M69.408,47.711c0.089-0.378,0.141-0.771,0.141-1.178
			c0-2.846-2.307-5.152-5.152-5.152c-0.477,0-0.934,0.069-1.372,0.189c-0.429-2.413-2.532-4.247-5.067-4.247
			c-0.076,0-0.15,0.007-0.226,0.01c-0.868-3.697-4.186-6.451-8.146-6.451c-4.625,0-8.374,3.75-8.374,8.373
			c0,0.879,0.136,1.724,0.387,2.52c-1.866,0.774-3.178,2.612-3.178,4.759c0,0.414,0.055,0.813,0.146,1.199h-4.361
			c-2.212,0-4.004,1.793-4.004,4.006l0,0c0,2.211,1.792,4.004,4.004,4.004h5.268h14.881h14.229c2.24,0,4.058-1.816,4.058-4.058l0,0
			C72.641,49.727,71.254,48.093,69.408,47.711z"/>
		<path id="XMLID_1331_" opacity="0.81" fill="#E6E7E8" d="M69.408,47.711c0.089-0.378,0.141-0.771,0.141-1.178
			c0-2.846-2.307-5.152-5.152-5.152c-0.477,0-0.934,0.069-1.372,0.189c-0.403-2.274-2.297-4.033-4.638-4.228
			c-0.621,7.769-4.948,14.49-11.211,18.399h7.178h14.229c2.24,0,4.058-1.816,4.058-4.058l0,0
			C72.641,49.727,71.254,48.093,69.408,47.711z"/>
		<path id="XMLID_1330_" fill="#F1F2F2" d="M68.623,45.009c0.276,1.091-0.878,1.985-1.838,1.265
			c-0.272-0.204-0.461-0.53-0.615-0.846c-0.212-0.437-0.388-0.902-0.396-1.333c-0.016-1.259,1.042-1.123,1.936-0.415
			C68.129,44.015,68.492,44.499,68.623,45.009z"/>
		<path id="XMLID_1329_" opacity="0.46" fill="#F1F2F2" d="M33.064,48.518c1.076-0.331,2.027,0.777,1.354,1.771
			c-0.19,0.282-0.507,0.486-0.814,0.656c-0.424,0.234-0.88,0.433-1.311,0.461c-1.257,0.081-1.174-0.983-0.51-1.911
			C32.096,49.061,32.563,48.673,33.064,48.518z"/>
		<path id="XMLID_1328_" opacity="0.68" fill="#FFFFFF" d="M46.985,32.122c1.552-0.35,2.805,1.338,1.769,2.68
			c-0.295,0.381-0.76,0.638-1.211,0.843c-0.621,0.286-1.282,0.517-1.896,0.507c-1.788-0.028-1.58-1.535-0.559-2.783
			C45.566,32.785,46.262,32.285,46.985,32.122z"/>
		<g id="XMLID_1326_">
			<radialGradient id="XMLID_37_" cx="51.4561" cy="46.957" r="1.6284" gradientUnits="userSpaceOnUse">
				<stop  offset="0" style="stop-color:#414042"/>
				<stop  offset="1" style="stop-color:#000000"/>
			</radialGradient>
			<circle id="XMLID_1327_" fill="url(#XMLID_37_)" cx="50.984" cy="47.686" r="1.628"/>
		</g>
		<radialGradient id="XMLID_38_" cx="46.9395" cy="43.1426" r="2.7597" gradientUnits="userSpaceOnUse">
			<stop  offset="0" style="stop-color:#414042"/>
			<stop  offset="1" style="stop-color:#000000"/>
		</radialGradient>
		<path id="XMLID_1325_" fill="url(#XMLID_38_)" d="M48.303,42.26L48.303,42.26c0,0.726-0.589,1.314-1.313,1.314
			c-0.726,0-1.313-0.589-1.313-1.314l0,0h-0.35l0,0c0,0.918,0.744,1.662,1.663,1.662c0.918,0,1.663-0.744,1.663-1.662l0,0H48.303z"
			/>
		<radialGradient id="XMLID_39_" cx="55.8018" cy="43.1426" r="2.7597" gradientUnits="userSpaceOnUse">
			<stop  offset="0" style="stop-color:#414042"/>
			<stop  offset="1" style="stop-color:#000000"/>
		</radialGradient>
		<path id="XMLID_1324_" fill="url(#XMLID_39_)" d="M57.166,42.26L57.166,42.26c0,0.726-0.59,1.314-1.315,1.314
			s-1.313-0.589-1.313-1.314l0,0h-0.349l0,0c0,0.918,0.744,1.662,1.661,1.662c0.919,0,1.664-0.744,1.664-1.662l0,0H57.166z"/>
		<g id="XMLID_1322_">
			<radialGradient id="XMLID_40_" cx="17.1221" cy="52.0664" r="1.6285" gradientUnits="userSpaceOnUse">
				<stop  offset="0" style="stop-color:#414042"/>
				<stop  offset="1" style="stop-color:#000000"/>
			</radialGradient>
			<circle id="XMLID_1323_" fill="url(#XMLID_40_)" cx="16.65" cy="52.795" r="1.629"/>
		</g>
		<radialGradient id="XMLID_41_" cx="12.6064" cy="48.2529" r="2.7591" gradientUnits="userSpaceOnUse">
			<stop  offset="0" style="stop-color:#414042"/>
			<stop  offset="1" style="stop-color:#000000"/>
		</radialGradient>
		<path id="XMLID_1321_" fill="url(#XMLID_41_)" d="M13.97,47.369L13.97,47.369c0,0.726-0.588,1.314-1.314,1.314
			c-0.725,0-1.314-0.589-1.314-1.314l0,0h-0.348l0,0c0,0.919,0.743,1.663,1.662,1.663c0.919,0,1.663-0.744,1.663-1.663l0,0H13.97z"
			/>
		<radialGradient id="XMLID_42_" cx="21.4688" cy="48.2529" r="2.7597" gradientUnits="userSpaceOnUse">
			<stop  offset="0" style="stop-color:#414042"/>
			<stop  offset="1" style="stop-color:#000000"/>
		</radialGradient>
		<path id="XMLID_1320_" fill="url(#XMLID_42_)" d="M22.833,47.369L22.833,47.369c0,0.726-0.589,1.314-1.314,1.314
			c-0.727,0-1.314-0.589-1.314-1.314l0,0h-0.348l0,0c0,0.919,0.744,1.663,1.663,1.663c0.917,0,1.663-0.744,1.663-1.663l0,0H22.833z"
			/>
	</g>
</g>
</svg>
