<?xml version="1.0" encoding="utf-8"?>
<!-- Generator: Adobe Illustrator 16.0.0, SVG Export Plug-In . SVG Version: 6.00 Build 0)  -->
<!DOCTYPE svg PUBLIC "-//W3C//DTD SVG 1.1//EN" "http://www.w3.org/Graphics/SVG/1.1/DTD/svg11.dtd">
<svg version="1.1" id="Layer_1" xmlns="http://www.w3.org/2000/svg" xmlns:xlink="http://www.w3.org/1999/xlink" x="0px" y="0px"
	 width="72.667px" height="72px" viewBox="0 0 72.667 72" enable-background="new 0 0 72.667 72" xml:space="preserve">
<path id="XMLID_1469_" fill="#939598" d="M71.689,29.249c0-3.003-2.448-5.438-5.471-5.438c-1.026,0-1.984,0.287-2.809,0.777
	c0.008-0.128,0.02-0.254,0.02-0.385c0-3.812-3.106-6.902-6.94-6.902c-1.388,0-2.677,0.41-3.762,1.107
	c-1.73-3.403-5.276-5.737-9.373-5.737c-5.798,0-10.499,4.674-10.499,10.44c0,0.449,0.032,0.89,0.087,1.324
	c-1.829,0.476-3.362,1.669-4.275,3.266c-3.806,0.031-6.882,3.106-6.882,6.899c0,3.811,3.107,6.901,6.94,6.901
	c0.394,0,0.778-0.04,1.154-0.103c1.088,3.354,4.249,5.782,7.983,5.782c1.751,0,3.377-0.536,4.722-1.449
	c1.397,2.677,4.205,4.506,7.445,4.506c2.986,0,5.599-1.554,7.087-3.889c1.1,0.527,2.33,0.832,3.633,0.832
	c4.635,0,8.39-3.735,8.39-8.344c0-1.618-0.472-3.123-1.271-4.402C70.083,33.739,71.689,31.68,71.689,29.249z"/>
<g id="XMLID_1464_">
	<g id="XMLID_1466_">
		
			<radialGradient id="XMLID_2_" cx="40.2119" cy="22.4961" r="0.9473" gradientTransform="matrix(1.0093 0 0 1.0036 -0.6738 -0.2104)" gradientUnits="userSpaceOnUse">
			<stop  offset="0" style="stop-color:#414042"/>
			<stop  offset="1" style="stop-color:#000000"/>
		</radialGradient>
		<ellipse id="XMLID_1468_" fill="url(#XMLID_2_)" cx="39.558" cy="22.716" rx="0.956" ry="0.951"/>
		
			<radialGradient id="XMLID_3_" cx="52.3135" cy="22.4214" r="0.9475" gradientTransform="matrix(1.0093 0 0 1.0036 -0.6738 -0.2104)" gradientUnits="userSpaceOnUse">
			<stop  offset="0" style="stop-color:#414042"/>
			<stop  offset="1" style="stop-color:#000000"/>
		</radialGradient>
		<ellipse id="XMLID_1467_" fill="url(#XMLID_3_)" cx="51.848" cy="22.716" rx="0.957" ry="0.951"/>
	</g>
	
		<radialGradient id="XMLID_4_" cx="45.873" cy="26.4536" r="3.9471" gradientTransform="matrix(1.0093 0 0 1.0036 -0.6738 -0.2104)" gradientUnits="userSpaceOnUse">
		<stop  offset="0" style="stop-color:#414042"/>
		<stop  offset="1" style="stop-color:#000000"/>
	</radialGradient>
	<rect id="XMLID_1465_" x="43.089" y="25.943" fill="url(#XMLID_4_)" width="5.229" height="0.743"/>
</g>
<linearGradient id="XMLID_5_" gradientUnits="userSpaceOnUse" x1="21.7856" y1="37.0234" x2="71.6895" y2="37.0234">
	<stop  offset="0.5257" style="stop-color:#939598"/>
	<stop  offset="1" style="stop-color:#808285"/>
</linearGradient>
<path id="XMLID_1463_" fill="url(#XMLID_5_)" d="M71.689,29.249c0-3.003-2.448-5.438-5.471-5.438c-0.995,0-1.926,0.271-2.728,0.734
	c-3.352,7.893-11.207,13.434-20.365,13.434c-7.44,0-14.022-3.657-18.025-9.263c-1.988,1.213-3.315,3.395-3.315,5.885
	c0,3.811,3.107,6.901,6.94,6.901c0.394,0,0.778-0.04,1.154-0.103c1.088,3.354,4.249,5.782,7.983,5.782
	c1.751,0,3.377-0.536,4.722-1.449c1.397,2.677,4.205,4.506,7.445,4.506c2.986,0,5.599-1.554,7.087-3.889
	c1.1,0.527,2.33,0.832,3.633,0.832c4.635,0,8.392-3.735,8.392-8.344c0-1.618-0.474-3.123-1.273-4.402
	C70.083,33.739,71.689,31.68,71.689,29.249z"/>
<linearGradient id="XMLID_6_" gradientUnits="userSpaceOnUse" x1="21.7856" y1="37.2754" x2="55.7308" y2="37.2754">
	<stop  offset="0" style="stop-color:#FFFFFF"/>
	<stop  offset="1" style="stop-color:#D1D3D4"/>
</linearGradient>
<path id="XMLID_1462_" opacity="0.53" fill="url(#XMLID_6_)" d="M63.569,39.227c-0.587,0-1.152,0.086-1.695,0.233
	c-0.527-2.963-3.126-5.217-6.26-5.217c-0.093,0-0.184,0.01-0.276,0.014c-1.072-4.541-5.171-7.923-10.063-7.923
	c-1.383,0-2.701,0.271-3.908,0.762c-1.557-1.708-3.806-2.781-6.308-2.781c-1.616,0-3.122,0.457-4.409,1.233
	c-0.002-0.01-0.005-0.021-0.008-0.031c-0.805,0.577-1.48,1.321-1.974,2.185c-3.806,0.031-6.882,3.106-6.882,6.899
	c0,3.811,3.107,6.901,6.94,6.901c0.394,0,0.778-0.04,1.154-0.103c1.088,3.354,4.249,5.782,7.983,5.782
	c1.751,0,3.377-0.536,4.722-1.449c1.397,2.677,4.205,4.506,7.445,4.506c2.986,0,5.599-1.554,7.087-3.889
	c1.1,0.527,2.33,0.832,3.633,0.832c3.617,0,6.698-2.274,7.877-5.466C67.465,40.202,65.634,39.227,63.569,39.227z"/>
<radialGradient id="XMLID_7_" cx="14.3872" cy="32.9707" r="31.4324" gradientTransform="matrix(1.0093 0 0 1.0036 -0.6738 -0.2104)" gradientUnits="userSpaceOnUse">
	<stop  offset="0" style="stop-color:#E6E7E8"/>
	<stop  offset="1" style="stop-color:#939598"/>
</radialGradient>
<path id="XMLID_1461_" fill="url(#XMLID_7_)" d="M8.616,30.776c0.025,0,0.048,0.004,0.073,0.004
	c-0.046-0.401-0.073-0.807-0.073-1.22c0-5.82,4.745-10.538,10.597-10.538c5.075,0,9.313,3.547,10.352,8.283
	c1.287-0.777,2.793-1.233,4.409-1.233c4.704,0,8.517,3.791,8.517,8.467c0,0.168-0.017,0.332-0.025,0.498
	c0.407-0.077,0.827-0.121,1.255-0.121c3.71,0,6.718,2.99,6.718,6.68c0,3.689-3.008,6.68-6.718,6.68
	c-0.944,0-1.842-0.195-2.657-0.545c-1.527,1.442-3.586,2.333-5.859,2.333c-0.279,0-0.555-0.016-0.827-0.043
	c-1.562,1.81-3.874,2.959-6.459,2.959c-2.103,0-4.024-0.762-5.509-2.017c-1.452,1.141-3.283,1.83-5.278,1.83
	c-3.505,0-6.512-2.109-7.819-5.117c-0.23,0.02-0.461,0.035-0.696,0.035c-4.703,0-8.516-3.791-8.516-8.468
	C0.1,34.568,3.913,30.776,8.616,30.776z"/>
<path id="XMLID_1460_" fill="#E6E7E8" d="M29.029,25.586c-1.578-3.85-5.377-6.563-9.816-6.563c-5.853,0-10.597,4.718-10.597,10.538
	c0,0.413,0.027,0.819,0.073,1.22c-0.025,0-0.048-0.004-0.073-0.004c-4.703,0-8.516,3.792-8.516,8.468
	c0,4.677,3.813,8.468,8.516,8.468c0.013,0,0.028-0.001,0.041-0.001C19.497,45.624,27.875,36.672,29.029,25.586z"/>
<linearGradient id="XMLID_8_" gradientUnits="userSpaceOnUse" x1="17.4229" y1="40.0752" x2="41.3476" y2="40.0752">
	<stop  offset="0" style="stop-color:#FFFFFF"/>
	<stop  offset="1" style="stop-color:#D1D3D4"/>
</linearGradient>
<path id="XMLID_1459_" opacity="0.44" fill="url(#XMLID_8_)" d="M50.438,41.597c0-3.69-3.008-6.68-6.718-6.68
	c-0.428,0-0.848,0.043-1.255,0.121c0.009-0.166,0.025-0.329,0.025-0.498c0-3.16-1.741-5.914-4.323-7.369
	c-4.146,1.339-7.144,5.211-7.144,9.78c0,1.078,0.168,2.118,0.477,3.094c-2.303,0.951-3.923,3.21-3.923,5.844
	c0,0.509,0.067,1.001,0.18,1.475H22.37c-2.732,0-4.947,2.202-4.947,4.919l0,0c0,0.169,0.009,0.338,0.026,0.505
	c1.872-0.071,3.585-0.742,4.959-1.823c1.485,1.255,3.407,2.017,5.509,2.017c2.585,0,4.897-1.149,6.459-2.959
	c0.272,0.027,0.548,0.043,0.827,0.043c2.273,0,4.332-0.891,5.859-2.333c0.815,0.35,1.713,0.545,2.657,0.545
	C47.43,48.276,50.438,45.286,50.438,41.597z"/>
<linearGradient id="XMLID_9_" gradientUnits="userSpaceOnUse" x1="20.2485" y1="43.3564" x2="58.2346" y2="43.3564">
	<stop  offset="0" style="stop-color:#D1D3D4"/>
	<stop  offset="1" style="stop-color:#FFFFFF"/>
</linearGradient>
<path id="XMLID_1458_" fill="url(#XMLID_9_)" d="M68.675,48.761c0.11-0.467,0.174-0.951,0.174-1.448
	c0-3.495-2.849-6.329-6.363-6.329c-0.587,0-1.155,0.086-1.695,0.233C60.262,38.253,57.664,36,54.529,36
	c-0.092,0-0.183,0.01-0.275,0.014c-1.072-4.541-5.171-7.923-10.064-7.923c-5.711,0-10.341,4.604-10.341,10.283
	c0,1.079,0.168,2.118,0.478,3.095c-2.304,0.951-3.925,3.208-3.925,5.845c0,0.507,0.067,0.999,0.181,1.474h-5.388
	c-2.731,0-4.946,2.202-4.946,4.917v0.002c0,2.716,2.215,4.917,4.946,4.917H31.7h18.383h17.573c2.768,0,5.011-2.229,5.011-4.981l0,0
	C72.667,51.235,70.954,49.229,68.675,48.761z"/>
<path id="XMLID_1457_" fill="#E6E7E8" d="M68.675,48.761c0.11-0.467,0.174-0.951,0.174-1.448c0-3.495-2.849-6.329-6.363-6.329
	c-0.587,0-1.155,0.086-1.695,0.233c-0.524-2.938-3.083-5.177-6.18-5.215c-0.184,9.914-5.99,18.461-14.382,22.62h9.854h17.573
	c2.768,0,5.011-2.229,5.011-4.981l0,0C72.667,51.235,70.954,49.229,68.675,48.761z"/>
<path id="XMLID_1456_" fill="#F1F2F2" d="M67.703,45.44c0.344,1.34-1.082,2.438-2.269,1.553c-0.335-0.251-0.569-0.652-0.759-1.039
	c-0.263-0.535-0.479-1.106-0.487-1.636c-0.021-1.548,1.285-1.382,2.39-0.508C67.095,44.218,67.544,44.814,67.703,45.44z"/>
<path id="XMLID_1455_" fill="#F1F2F2" d="M23.786,49.749c1.328-0.406,2.503,0.955,1.674,2.175c-0.235,0.348-0.626,0.601-1.007,0.808
	c-0.524,0.286-1.087,0.531-1.619,0.564c-1.553,0.101-1.451-1.207-0.629-2.346C22.589,50.416,23.166,49.939,23.786,49.749z"/>
<path id="XMLID_1454_" fill="#D1D3D4" d="M4.004,33.56c1.328-0.407,2.504,0.954,1.673,2.175c-0.235,0.347-0.626,0.599-1.006,0.807
	c-0.523,0.287-1.086,0.531-1.618,0.564c-1.553,0.1-1.451-1.207-0.629-2.347C2.809,34.226,3.385,33.75,4.004,33.56z"/>
<path id="XMLID_1453_" fill="#A7A9AC" d="M37.785,15.471c1.329-0.408,2.503,0.954,1.673,2.174c-0.235,0.347-0.626,0.599-1.007,0.807
	c-0.523,0.288-1.085,0.531-1.618,0.565c-1.552,0.099-1.45-1.207-0.629-2.347C36.589,16.136,37.166,15.66,37.785,15.471z"/>
<path id="XMLID_1452_" fill="#FFFFFF" d="M40.98,29.612c1.917-0.43,3.465,1.645,2.184,3.292c-0.364,0.468-0.94,0.783-1.495,1.037
	c-0.767,0.35-1.586,0.634-2.343,0.623c-2.207-0.035-1.95-1.887-0.689-3.419C39.229,30.427,40.085,29.813,40.98,29.612z"/>
<path id="XMLID_1451_" fill="#D1D3D4" d="M14.889,21.363c1.917-0.43,3.465,1.645,2.184,3.292c-0.363,0.467-0.938,0.783-1.494,1.036
	c-0.768,0.35-1.586,0.634-2.342,0.623c-2.208-0.034-1.951-1.886-0.69-3.418C13.138,22.177,13.996,21.563,14.889,21.363z"/>
<path id="XMLID_1450_" fill="#A7A9AC" d="M59.391,19.202c1.554,1.195,0.933,3.703-1.161,3.771c-0.593,0.018-1.206-0.221-1.756-0.487
	c-0.759-0.365-1.502-0.811-1.974-1.399c-1.38-1.714,0.219-2.697,2.212-2.705C57.645,18.378,58.665,18.644,59.391,19.202z"/>
<g id="XMLID_1445_">
	<g id="XMLID_1447_">
		
			<radialGradient id="XMLID_10_" cx="12.5488" cy="33.9287" r="3.5326" gradientTransform="matrix(1.0093 0 0 1.0036 -0.6738 -0.2104)" gradientUnits="userSpaceOnUse">
			<stop  offset="0" style="stop-color:#414042"/>
			<stop  offset="1" style="stop-color:#000000"/>
		</radialGradient>
		<rect id="XMLID_1449_" x="9.72" y="33.486" fill="url(#XMLID_10_)" width="4.682" height="0.665"/>
		
			<radialGradient id="XMLID_11_" cx="25.8071" cy="33.9287" r="3.5326" gradientTransform="matrix(1.0093 0 0 1.0036 -0.6738 -0.2104)" gradientUnits="userSpaceOnUse">
			<stop  offset="0" style="stop-color:#414042"/>
			<stop  offset="1" style="stop-color:#000000"/>
		</radialGradient>
		<rect id="XMLID_1448_" x="23.101" y="33.486" fill="url(#XMLID_11_)" width="4.682" height="0.665"/>
	</g>
	
		<radialGradient id="XMLID_12_" cx="19.1582" cy="38.7363" r="4.9784" gradientTransform="matrix(1.0093 0 0 1.0036 -0.6738 -0.2104)" gradientUnits="userSpaceOnUse">
		<stop  offset="0.2927" style="stop-color:#414042"/>
		<stop  offset="1" style="stop-color:#000000"/>
	</radialGradient>
	<path id="XMLID_1446_" fill="url(#XMLID_12_)" d="M18.752,40.077c1.671,0,3.027-1.349,3.027-3.012h-6.055
		C15.725,38.729,17.079,40.077,18.752,40.077z"/>
</g>
<g id="XMLID_1440_">
	<g id="XMLID_1442_">
		
			<radialGradient id="XMLID_13_" cx="41.0493" cy="44.1133" r="3.5327" gradientTransform="matrix(1.0093 0 0 1.0036 -0.6738 -0.2104)" gradientUnits="userSpaceOnUse">
			<stop  offset="0" style="stop-color:#414042"/>
			<stop  offset="1" style="stop-color:#000000"/>
		</radialGradient>
		<rect id="XMLID_1444_" x="38.485" y="43.707" fill="url(#XMLID_13_)" width="4.682" height="0.666"/>
		
			<radialGradient id="XMLID_14_" cx="54.3066" cy="44.1133" r="3.5341" gradientTransform="matrix(1.0093 0 0 1.0036 -0.6738 -0.2104)" gradientUnits="userSpaceOnUse">
			<stop  offset="0" style="stop-color:#414042"/>
			<stop  offset="1" style="stop-color:#000000"/>
		</radialGradient>
		<rect id="XMLID_1443_" x="51.864" y="43.707" fill="url(#XMLID_14_)" width="4.684" height="0.666"/>
	</g>
	
		<radialGradient id="XMLID_15_" cx="47.6582" cy="48.9199" r="4.9791" gradientTransform="matrix(1.0093 0 0 1.0036 -0.6738 -0.2104)" gradientUnits="userSpaceOnUse">
		<stop  offset="0.2927" style="stop-color:#414042"/>
		<stop  offset="1" style="stop-color:#000000"/>
	</radialGradient>
	<path id="XMLID_1441_" fill="url(#XMLID_15_)" d="M47.516,50.297c1.672,0,3.028-1.347,3.028-3.011H44.49
		C44.49,48.95,45.843,50.297,47.516,50.297z"/>
</g>
</svg>
