<?xml version="1.0" encoding="utf-8"?>
<!-- Generator: Adobe Illustrator 16.0.0, SVG Export Plug-In . SVG Version: 6.00 Build 0)  -->
<!DOCTYPE svg PUBLIC "-//W3C//DTD SVG 1.1//EN" "http://www.w3.org/Graphics/SVG/1.1/DTD/svg11.dtd">
<svg version="1.1" id="Layer_1" xmlns="http://www.w3.org/2000/svg" xmlns:xlink="http://www.w3.org/1999/xlink" x="0px" y="0px"
	 width="72.667px" height="72px" viewBox="0 0 72.667 72" enable-background="new 0 0 72.667 72" xml:space="preserve">
<g id="XMLID_1730_">
	<g id="XMLID_1739_">
		
			<radialGradient id="XMLID_2_" cx="3995.4912" cy="-1704.1875" r="13.7908" gradientTransform="matrix(-0.8407 0.5415 0.5415 0.8407 4349.0796 -674.7261)" gradientUnits="userSpaceOnUse">
			<stop  offset="0.0428" style="stop-color:#A8E0F9"/>
			<stop  offset="0.6495" style="stop-color:#74D1F6"/>
			<stop  offset="1" style="stop-color:#27A8E0"/>
		</radialGradient>
		<path id="XMLID_1746_" fill="url(#XMLID_2_)" d="M72.217,64.01l0.227-0.146c0.327-0.208,0.421-0.641,0.21-0.967L62.6,47.285
			c-0.212-0.325-0.644-0.419-0.967-0.209l-0.231,0.146c-0.325,0.209-0.418,0.643-0.209,0.969L71.247,63.8
			C71.457,64.127,71.891,64.221,72.217,64.01z"/>
		
			<radialGradient id="XMLID_3_" cx="4007.6289" cy="-1704.5874" r="13.7917" gradientTransform="matrix(-0.8407 0.5415 0.5415 0.8407 4349.0796 -674.7261)" gradientUnits="userSpaceOnUse">
			<stop  offset="0.0428" style="stop-color:#A8E0F9"/>
			<stop  offset="0.6495" style="stop-color:#74D1F6"/>
			<stop  offset="1" style="stop-color:#27A8E0"/>
		</radialGradient>
		<path id="XMLID_1745_" fill="url(#XMLID_3_)" d="M61.794,70.247l0.229-0.146c0.325-0.209,0.42-0.643,0.211-0.969L52.178,53.521
			c-0.211-0.324-0.645-0.418-0.97-0.209l-0.229,0.149c-0.324,0.208-0.418,0.639-0.209,0.966l10.056,15.61
			C61.035,70.361,61.47,70.455,61.794,70.247z"/>
		
			<radialGradient id="XMLID_4_" cx="4001.5605" cy="-1700.6401" r="13.7928" gradientTransform="matrix(-0.8407 0.5415 0.5415 0.8407 4349.0796 -674.7261)" gradientUnits="userSpaceOnUse">
			<stop  offset="0.0428" style="stop-color:#A8E0F9"/>
			<stop  offset="0.6495" style="stop-color:#74D1F6"/>
			<stop  offset="1" style="stop-color:#27A8E0"/>
		</radialGradient>
		<path id="XMLID_1744_" fill="url(#XMLID_4_)" d="M69.032,70.279l0.23-0.146c0.323-0.21,0.417-0.644,0.209-0.969L59.416,53.552
			c-0.209-0.325-0.64-0.418-0.967-0.209l-0.229,0.146c-0.325,0.208-0.42,0.644-0.209,0.968l10.055,15.612
			C68.273,70.394,68.709,70.488,69.032,70.279z"/>
		
			<radialGradient id="XMLID_5_" cx="3998.5264" cy="-1709.9102" r="13.792" gradientTransform="matrix(-0.8407 0.5415 0.5415 0.8407 4349.0796 -674.7261)" gradientUnits="userSpaceOnUse">
			<stop  offset="0.0428" style="stop-color:#A8E0F9"/>
			<stop  offset="0.6495" style="stop-color:#74D1F6"/>
			<stop  offset="1" style="stop-color:#27A8E0"/>
		</radialGradient>
		<path id="XMLID_1743_" fill="url(#XMLID_5_)" d="M66.565,60.844l0.227-0.148c0.326-0.21,0.42-0.642,0.209-0.966L56.945,44.118
			c-0.206-0.325-0.64-0.42-0.965-0.21l-0.229,0.146c-0.323,0.211-0.417,0.645-0.209,0.969l10.056,15.612
			C65.808,60.959,66.24,61.053,66.565,60.844z"/>
		
			<radialGradient id="XMLID_6_" cx="4010.6641" cy="-1707.0234" r="13.7924" gradientTransform="matrix(-0.8407 0.5415 0.5415 0.8407 4349.0796 -674.7261)" gradientUnits="userSpaceOnUse">
			<stop  offset="0.0428" style="stop-color:#A8E0F9"/>
			<stop  offset="0.6495" style="stop-color:#74D1F6"/>
			<stop  offset="1" style="stop-color:#27A8E0"/>
		</radialGradient>
		<path id="XMLID_1742_" fill="url(#XMLID_6_)" d="M57.925,69.843l0.226-0.146c0.325-0.211,0.419-0.645,0.21-0.971l-10.054-15.61
			c-0.211-0.327-0.644-0.42-0.968-0.21l-0.229,0.148c-0.324,0.21-0.418,0.642-0.21,0.968l10.054,15.61
			C57.165,69.957,57.598,70.051,57.925,69.843z"/>
		
			<radialGradient id="XMLID_7_" cx="4013.6992" cy="-1712.7471" r="13.7935" gradientTransform="matrix(-0.8407 0.5415 0.5415 0.8407 4349.0796 -674.7261)" gradientUnits="userSpaceOnUse">
			<stop  offset="0.0428" style="stop-color:#A8E0F9"/>
			<stop  offset="0.6495" style="stop-color:#74D1F6"/>
			<stop  offset="1" style="stop-color:#27A8E0"/>
		</radialGradient>
		<path id="XMLID_1741_" fill="url(#XMLID_7_)" d="M52.271,66.673l0.23-0.145c0.323-0.21,0.417-0.645,0.21-0.968L42.654,49.945
			c-0.208-0.322-0.64-0.416-0.966-0.209l-0.229,0.149c-0.324,0.208-0.419,0.644-0.209,0.967l10.056,15.612
			C51.514,66.791,51.949,66.884,52.271,66.673z"/>
		
			<radialGradient id="XMLID_8_" cx="4004.5957" cy="-1706.772" r="13.7943" gradientTransform="matrix(-0.8407 0.5415 0.5415 0.8407 4349.0796 -674.7261)" gradientUnits="userSpaceOnUse">
			<stop  offset="0.0428" style="stop-color:#A8E0F9"/>
			<stop  offset="0.6495" style="stop-color:#74D1F6"/>
			<stop  offset="1" style="stop-color:#27A8E0"/>
		</radialGradient>
		<path id="XMLID_1740_" fill="url(#XMLID_8_)" d="M63.162,66.77l0.23-0.15c0.324-0.208,0.418-0.64,0.208-0.966L53.543,50.041
			c-0.207-0.324-0.641-0.419-0.968-0.21l-0.227,0.147c-0.325,0.21-0.42,0.645-0.21,0.97L62.194,66.56
			C62.404,66.883,62.837,66.977,63.162,66.77z"/>
	</g>
	<g id="XMLID_1731_">
		
			<radialGradient id="XMLID_9_" cx="4016.9648" cy="-1725.6616" r="13.79" gradientTransform="matrix(-0.8407 0.5415 0.5415 0.8407 4349.0796 -674.7261)" gradientUnits="userSpaceOnUse">
			<stop  offset="0.0428" style="stop-color:#A8E0F9"/>
			<stop  offset="0.6495" style="stop-color:#74D1F6"/>
			<stop  offset="1" style="stop-color:#27A8E0"/>
		</radialGradient>
		<path id="XMLID_1738_" fill="url(#XMLID_9_)" d="M42.531,57.584l0.23-0.146c0.325-0.208,0.419-0.641,0.21-0.967L32.917,40.858
			c-0.211-0.323-0.643-0.417-0.968-0.209l-0.227,0.148c-0.326,0.208-0.42,0.642-0.209,0.968l10.055,15.609
			C41.776,57.702,42.208,57.795,42.531,57.584z"/>
		
			<radialGradient id="XMLID_10_" cx="4029.1035" cy="-1726.062" r="13.7915" gradientTransform="matrix(-0.8407 0.5415 0.5415 0.8407 4349.0796 -674.7261)" gradientUnits="userSpaceOnUse">
			<stop  offset="0.0428" style="stop-color:#A8E0F9"/>
			<stop  offset="0.6495" style="stop-color:#74D1F6"/>
			<stop  offset="1" style="stop-color:#27A8E0"/>
		</radialGradient>
		<path id="XMLID_1737_" fill="url(#XMLID_10_)" d="M32.112,63.821l0.229-0.146c0.323-0.208,0.417-0.643,0.21-0.968L22.495,47.095
			c-0.21-0.323-0.642-0.417-0.968-0.209l-0.229,0.149c-0.325,0.208-0.418,0.639-0.209,0.966l10.056,15.61
			C31.353,63.936,31.788,64.029,32.112,63.821z"/>
		
			<radialGradient id="XMLID_11_" cx="4023.0352" cy="-1722.1162" r="13.7921" gradientTransform="matrix(-0.8407 0.5415 0.5415 0.8407 4349.0796 -674.7261)" gradientUnits="userSpaceOnUse">
			<stop  offset="0.0428" style="stop-color:#A8E0F9"/>
			<stop  offset="0.6495" style="stop-color:#74D1F6"/>
			<stop  offset="1" style="stop-color:#27A8E0"/>
		</radialGradient>
		<path id="XMLID_1736_" fill="url(#XMLID_11_)" d="M39.351,63.854l0.229-0.147c0.325-0.209,0.418-0.642,0.209-0.968L29.734,47.127
			c-0.21-0.326-0.643-0.42-0.968-0.21l-0.229,0.146c-0.324,0.208-0.418,0.645-0.209,0.967l10.057,15.614
			C38.594,63.969,39.027,64.063,39.351,63.854z"/>
		
			<radialGradient id="XMLID_12_" cx="4020.001" cy="-1731.3848" r="13.7921" gradientTransform="matrix(-0.8407 0.5415 0.5415 0.8407 4349.0796 -674.7261)" gradientUnits="userSpaceOnUse">
			<stop  offset="0.0428" style="stop-color:#A8E0F9"/>
			<stop  offset="0.6495" style="stop-color:#74D1F6"/>
			<stop  offset="1" style="stop-color:#27A8E0"/>
		</radialGradient>
		<path id="XMLID_1735_" fill="url(#XMLID_12_)" d="M36.883,54.418l0.23-0.147c0.325-0.21,0.419-0.642,0.209-0.966L27.266,37.693
			c-0.209-0.327-0.642-0.421-0.967-0.211l-0.229,0.146c-0.326,0.211-0.419,0.645-0.21,0.969l10.056,15.612
			C36.125,54.534,36.559,54.628,36.883,54.418z"/>
		
			<radialGradient id="XMLID_13_" cx="4032.1387" cy="-1728.499" r="13.7922" gradientTransform="matrix(-0.8407 0.5415 0.5415 0.8407 4349.0796 -674.7261)" gradientUnits="userSpaceOnUse">
			<stop  offset="0.0428" style="stop-color:#A8E0F9"/>
			<stop  offset="0.6495" style="stop-color:#74D1F6"/>
			<stop  offset="1" style="stop-color:#27A8E0"/>
		</radialGradient>
		<path id="XMLID_1734_" fill="url(#XMLID_13_)" d="M28.241,63.417l0.229-0.146c0.323-0.211,0.417-0.645,0.21-0.97L18.624,46.688
			c-0.21-0.325-0.643-0.419-0.968-0.209l-0.229,0.148c-0.325,0.21-0.417,0.642-0.21,0.968l10.055,15.61
			C27.482,63.53,27.916,63.625,28.241,63.417z"/>
		
			<radialGradient id="XMLID_14_" cx="4035.1729" cy="-1734.2222" r="13.793" gradientTransform="matrix(-0.8407 0.5415 0.5415 0.8407 4349.0796 -674.7261)" gradientUnits="userSpaceOnUse">
			<stop  offset="0.0428" style="stop-color:#A8E0F9"/>
			<stop  offset="0.6495" style="stop-color:#74D1F6"/>
			<stop  offset="1" style="stop-color:#27A8E0"/>
		</radialGradient>
		<path id="XMLID_1733_" fill="url(#XMLID_14_)" d="M22.591,60.248l0.228-0.145c0.326-0.211,0.42-0.646,0.209-0.97L12.974,43.521
			c-0.21-0.324-0.643-0.418-0.968-0.21l-0.229,0.149c-0.325,0.208-0.419,0.644-0.209,0.967l10.054,15.611
			C21.833,60.365,22.266,60.459,22.591,60.248z"/>
		
			<radialGradient id="XMLID_15_" cx="4026.0703" cy="-1728.2466" r="13.7915" gradientTransform="matrix(-0.8407 0.5415 0.5415 0.8407 4349.0796 -674.7261)" gradientUnits="userSpaceOnUse">
			<stop  offset="0.0428" style="stop-color:#A8E0F9"/>
			<stop  offset="0.6495" style="stop-color:#74D1F6"/>
			<stop  offset="1" style="stop-color:#27A8E0"/>
		</radialGradient>
		<path id="XMLID_1732_" fill="url(#XMLID_15_)" d="M33.479,60.343l0.229-0.149c0.325-0.208,0.418-0.64,0.209-0.966L23.863,43.615
			c-0.209-0.325-0.644-0.419-0.968-0.209l-0.228,0.146c-0.325,0.211-0.418,0.645-0.209,0.971l10.054,15.61
			C32.722,60.457,33.154,60.551,33.479,60.343z"/>
	</g>
</g>
<radialGradient id="XMLID_16_" cx="13.6772" cy="27.5869" r="31.7933" gradientUnits="userSpaceOnUse">
	<stop  offset="0" style="stop-color:#E6E7E8"/>
	<stop  offset="1" style="stop-color:#939598"/>
</radialGradient>
<path id="XMLID_1729_" fill="url(#XMLID_16_)" d="M8.435,25.468c0.025,0,0.048,0.003,0.073,0.003
	c-0.046-0.403-0.073-0.813-0.073-1.229c0-5.866,4.755-10.621,10.622-10.621c5.084,0,9.333,3.575,10.375,8.348
	c1.29-0.784,2.798-1.242,4.418-1.242c4.714,0,8.534,3.821,8.534,8.534c0,0.169-0.015,0.334-0.024,0.501
	c0.407-0.077,0.825-0.122,1.258-0.122c3.717,0,6.73,3.015,6.73,6.734c0,3.718-3.014,6.734-6.73,6.734
	c-0.947,0-1.847-0.199-2.665-0.552c-1.531,1.454-3.594,2.352-5.872,2.352c-0.279,0-0.556-0.015-0.829-0.043
	c-1.565,1.823-3.882,2.982-6.473,2.982c-2.107,0-4.033-0.768-5.521-2.032c-1.455,1.149-3.289,1.843-5.289,1.843
	c-3.512,0-6.527-2.124-7.837-5.155c-0.23,0.019-0.462,0.035-0.698,0.035c-4.713,0-8.534-3.821-8.534-8.535
	C-0.099,29.29,3.722,25.468,8.435,25.468z"/>
<path id="XMLID_1728_" fill="#E6E7E8" d="M28.893,20.237c-1.582-3.879-5.389-6.615-9.836-6.615c-5.867,0-10.622,4.755-10.622,10.621
	c0,0.416,0.027,0.826,0.073,1.229c-0.025,0-0.048-0.003-0.073-0.003c-4.713,0-8.534,3.821-8.534,8.535
	c0,4.714,3.821,8.535,8.534,8.535c0.014,0,0.027-0.001,0.041-0.001C19.34,40.433,27.736,31.411,28.893,20.237z"/>
<path id="XMLID_1727_" fill="#D1D3D4" d="M4.205,28.273c1.331-0.41,2.508,0.961,1.676,2.193c-0.236,0.349-0.627,0.603-1.008,0.812
	c-0.525,0.29-1.09,0.536-1.623,0.57c-1.556,0.101-1.454-1.216-0.63-2.365C3.005,28.945,3.583,28.465,4.205,28.273z"/>
<path id="XMLID_1726_" fill="#D1D3D4" d="M15.433,15.171c1.922-0.433,3.473,1.657,2.188,3.318c-0.364,0.471-0.941,0.789-1.499,1.044
	c-0.769,0.353-1.588,0.64-2.346,0.628c-2.213-0.036-1.957-1.901-0.691-3.446C13.678,15.992,14.538,15.374,15.433,15.171z"/>
<linearGradient id="XMLID_17_" gradientUnits="userSpaceOnUse" x1="17.2627" y1="34.8408" x2="41.2391" y2="34.8408">
	<stop  offset="0" style="stop-color:#FFFFFF"/>
	<stop  offset="1" style="stop-color:#D1D3D4"/>
</linearGradient>
<path id="XMLID_1725_" fill="url(#XMLID_17_)" d="M50.349,36.374c0-3.719-3.014-6.734-6.73-6.734c-0.434,0-0.852,0.045-1.258,0.122
	c0.009-0.167,0.024-0.332,0.024-0.501c0-3.185-1.747-5.96-4.332-7.427c-4.155,1.35-7.16,5.251-7.16,9.856
	c0,1.088,0.168,2.135,0.479,3.119c-2.309,0.959-3.934,3.234-3.934,5.889c0,0.514,0.068,1.009,0.182,1.486H22.22
	c-2.739,0-4.958,2.22-4.958,4.958l0,0c0,0.172,0.008,0.341,0.024,0.508c1.876-0.068,3.594-0.748,4.971-1.836
	c1.489,1.265,3.415,2.032,5.521,2.032c2.591,0,4.908-1.159,6.473-2.982c0.273,0.028,0.549,0.043,0.829,0.043
	c2.278,0,4.341-0.897,5.872-2.352c0.818,0.353,1.718,0.552,2.665,0.552C47.335,43.108,50.349,40.092,50.349,36.374z"/>
<linearGradient id="XMLID_18_" gradientUnits="userSpaceOnUse" x1="20.0928" y1="38.1475" x2="58.1634" y2="38.1475">
	<stop  offset="0" style="stop-color:#D1D3D4"/>
	<stop  offset="1" style="stop-color:#FFFFFF"/>
</linearGradient>
<path id="XMLID_1724_" fill="url(#XMLID_18_)" d="M68.63,43.594c0.107-0.471,0.174-0.957,0.174-1.461
	c0-3.521-2.857-6.377-6.379-6.377c-0.59,0-1.158,0.086-1.699,0.236c-0.531-2.987-3.135-5.258-6.275-5.258
	c-0.09,0-0.184,0.009-0.275,0.014c-1.074-4.577-5.182-7.986-10.086-7.986c-5.725,0-10.364,4.641-10.364,10.365
	c0,1.086,0.167,2.133,0.477,3.118c-2.308,0.96-3.931,3.233-3.931,5.89c0,0.513,0.066,1.01,0.181,1.486h-5.4
	c-2.738,0-4.958,2.22-4.958,4.956l0,0c0,2.739,2.22,4.959,4.958,4.959h6.52h18.422h17.611c2.775,0,5.023-2.248,5.023-5.021l0,0
	C72.628,46.088,70.911,44.066,68.63,43.594z"/>
<path id="XMLID_1723_" fill="#E6E7E8" d="M68.628,43.594c0.109-0.471,0.176-0.957,0.176-1.461c0-3.521-2.857-6.377-6.379-6.377
	c-0.59,0-1.158,0.086-1.699,0.236c-0.525-2.962-3.09-5.217-6.193-5.256c-0.186,9.992-6.004,18.605-14.414,22.799h9.875h17.611
	c2.775,0,5.023-2.248,5.023-5.021l0,0C72.628,46.088,70.911,44.066,68.628,43.594z"/>
<path id="XMLID_1722_" fill="#F1F2F2" d="M67.653,40.247c0.344,1.352-1.086,2.459-2.273,1.565c-0.336-0.253-0.57-0.656-0.76-1.048
	c-0.264-0.538-0.482-1.114-0.49-1.648c-0.02-1.56,1.289-1.392,2.396-0.512C67.044,39.017,67.493,39.616,67.653,40.247z"/>
<path id="XMLID_1721_" fill="#F1F2F2" d="M23.639,44.591c1.332-0.411,2.509,0.962,1.676,2.193c-0.235,0.349-0.627,0.603-1.009,0.812
	c-0.525,0.291-1.088,0.536-1.622,0.571c-1.555,0.1-1.454-1.217-0.631-2.367C22.439,45.263,23.018,44.782,23.639,44.591z"/>
<path id="XMLID_1720_" fill="#FFFFFF" d="M40.872,24.295c1.92-0.433,3.471,1.658,2.188,3.318c-0.365,0.471-0.94,0.789-1.498,1.044
	c-0.77,0.352-1.588,0.64-2.347,0.627c-2.213-0.035-1.957-1.901-0.691-3.445C39.116,25.116,39.975,24.497,40.872,24.295z"/>
<g id="XMLID_1717_">
	<radialGradient id="XMLID_19_" cx="42.4189" cy="38.751" r="0.9561" gradientUnits="userSpaceOnUse">
		<stop  offset="0" style="stop-color:#414042"/>
		<stop  offset="1" style="stop-color:#000000"/>
	</radialGradient>
	<circle id="XMLID_1719_" fill="url(#XMLID_19_)" cx="42.066" cy="39.104" r="0.956"/>
	<radialGradient id="XMLID_20_" cx="54.583" cy="38.6758" r="0.9561" gradientUnits="userSpaceOnUse">
		<stop  offset="0" style="stop-color:#414042"/>
		<stop  offset="1" style="stop-color:#000000"/>
	</radialGradient>
	<circle id="XMLID_1718_" fill="url(#XMLID_20_)" cx="54.307" cy="39.104" r="0.956"/>
</g>
<g id="XMLID_1714_">
	<radialGradient id="XMLID_21_" cx="13.1221" cy="27.728" r="0.9555" gradientUnits="userSpaceOnUse">
		<stop  offset="0" style="stop-color:#414042"/>
		<stop  offset="1" style="stop-color:#000000"/>
	</radialGradient>
	<circle id="XMLID_1716_" fill="url(#XMLID_21_)" cx="12.77" cy="28.08" r="0.956"/>
	<radialGradient id="XMLID_22_" cx="25.2881" cy="27.6523" r="0.9557" gradientUnits="userSpaceOnUse">
		<stop  offset="0" style="stop-color:#414042"/>
		<stop  offset="1" style="stop-color:#000000"/>
	</radialGradient>
	<circle id="XMLID_1715_" fill="url(#XMLID_22_)" cx="25.011" cy="28.08" r="0.956"/>
</g>
<radialGradient id="XMLID_23_" cx="999.626" cy="631.8564" r="5.0355" gradientTransform="matrix(1 0 0 1 -980.8271 -598.6592)" gradientUnits="userSpaceOnUse">
	<stop  offset="0.2927" style="stop-color:#414042"/>
	<stop  offset="1" style="stop-color:#000000"/>
</radialGradient>
<path id="XMLID_1713_" fill="url(#XMLID_23_)" d="M18.89,34.62c1.677,0,3.034-1.357,3.034-3.034h-6.068
	C15.856,33.262,17.215,34.62,18.89,34.62z"/>
<radialGradient id="XMLID_24_" cx="1028.9277" cy="643.0508" r="5.0349" gradientTransform="matrix(1 0 0 1 -980.8271 -598.6592)" gradientUnits="userSpaceOnUse">
	<stop  offset="0.2927" style="stop-color:#414042"/>
	<stop  offset="1" style="stop-color:#000000"/>
</radialGradient>
<path id="XMLID_1712_" fill="url(#XMLID_24_)" d="M48.19,45.813c1.676,0,3.035-1.357,3.035-3.033h-6.068
	C45.157,44.456,46.517,45.813,48.19,45.813z"/>
</svg>
