<?xml version="1.0" encoding="utf-8"?>
<!-- Generator: Adobe Illustrator 16.0.0, SVG Export Plug-In . SVG Version: 6.00 Build 0)  -->
<!DOCTYPE svg PUBLIC "-//W3C//DTD SVG 1.1//EN" "http://www.w3.org/Graphics/SVG/1.1/DTD/svg11.dtd">
<svg version="1.1" id="Layer_1" xmlns="http://www.w3.org/2000/svg" xmlns:xlink="http://www.w3.org/1999/xlink" x="0px" y="0px"
	 width="72.667px" height="72px" viewBox="0 0 72.667 72" enable-background="new 0 0 72.667 72" xml:space="preserve">
<polygon id="XMLID_1812_" fill="#F7941E" points="9.767,9.758 18.118,9.247 22.734,2.268 30.22,6.012 37.704,2.268 42.319,9.247 
	50.671,9.758 51.183,18.109 58.161,22.725 54.418,30.211 58.161,37.695 51.183,42.313 50.671,50.662 42.319,51.173 37.704,58.152 
	30.22,54.408 22.733,58.152 18.118,51.173 9.767,50.662 9.256,42.313 2.275,37.695 6.021,30.21 2.276,22.725 9.256,18.109 "/>
<linearGradient id="XMLID_2_" gradientUnits="userSpaceOnUse" x1="710.6855" y1="-1672.3477" x2="766.7623" y2="-1672.3477" gradientTransform="matrix(0.7071 0.7071 -0.7071 0.7071 -1675.0964 689.929)">
	<stop  offset="0.017" style="stop-color:#FFC635"/>
	<stop  offset="0.2379" style="stop-color:#FBB040"/>
	<stop  offset="0.7876" style="stop-color:#F7941E"/>
	<stop  offset="0.9796" style="stop-color:#F47B20"/>
</linearGradient>
<polygon id="XMLID_1811_" fill="url(#XMLID_2_)" points="0,30.211 5.792,23.664 4.045,15.097 12.342,12.333 15.106,4.037 
	23.672,5.784 30.22,-0.009 36.766,5.784 45.332,4.037 48.095,12.333 56.391,15.097 54.645,23.664 60.438,30.211 54.645,36.757 
	56.391,45.324 48.095,48.087 45.332,56.383 36.765,54.636 30.22,60.429 23.672,54.636 15.106,56.383 12.342,48.087 4.045,45.323 
	5.792,36.757 "/>
<radialGradient id="XMLID_3_" cx="25.7769" cy="25.9609" r="22.8899" gradientUnits="userSpaceOnUse">
	<stop  offset="0.017" style="stop-color:#FFC635"/>
	<stop  offset="0.2379" style="stop-color:#FBB040"/>
	<stop  offset="0.7876" style="stop-color:#F7941E"/>
	<stop  offset="0.9796" style="stop-color:#F47B20"/>
</radialGradient>
<circle id="XMLID_1810_" fill="url(#XMLID_3_)" cx="30.219" cy="30.211" r="22.89"/>
<g id="XMLID_1803_">
	<g id="XMLID_1808_">
		
			<radialGradient id="XMLID_4_" cx="16.7871" cy="24.8218" r="7.3004" gradientTransform="matrix(0.845 0 0 1 6.9498 0)" gradientUnits="userSpaceOnUse">
			<stop  offset="0" style="stop-color:#414042"/>
			<stop  offset="1" style="stop-color:#000000"/>
		</radialGradient>
		<rect id="XMLID_1809_" x="17.207" y="24.095" fill="url(#XMLID_4_)" width="8.1" height="1.369"/>
	</g>
	<g id="XMLID_1806_">
		
			<radialGradient id="XMLID_5_" cx="26.3721" cy="35.7524" r="7.2992" gradientTransform="matrix(0.845 0 0 1 6.9498 0)" gradientUnits="userSpaceOnUse">
			<stop  offset="0" style="stop-color:#414042"/>
			<stop  offset="1" style="stop-color:#000000"/>
		</radialGradient>
		<rect id="XMLID_1807_" x="25.307" y="35.025" fill="url(#XMLID_5_)" width="8.099" height="1.371"/>
	</g>
	<g id="XMLID_1804_">
		
			<radialGradient id="XMLID_6_" cx="37.999" cy="24.8218" r="7.299" gradientTransform="matrix(0.845 0 0 1 6.9498 0)" gradientUnits="userSpaceOnUse">
			<stop  offset="0" style="stop-color:#414042"/>
			<stop  offset="1" style="stop-color:#000000"/>
		</radialGradient>
		<rect id="XMLID_1805_" x="35.131" y="24.095" fill="url(#XMLID_6_)" width="8.099" height="1.369"/>
	</g>
</g>
<linearGradient id="XMLID_7_" gradientUnits="userSpaceOnUse" x1="17.6318" y1="40.3496" x2="52.2998" y2="40.3496">
	<stop  offset="0" style="stop-color:#FFFFFF"/>
	<stop  offset="1" style="stop-color:#D1D3D4"/>
</linearGradient>
<path id="XMLID_1802_" fill="url(#XMLID_7_)" d="M17.632,49.33c3.611,2.381,7.936,3.771,12.588,3.771
	c10.548,0,19.428-7.138,22.08-16.845c-0.789-0.34-1.659-0.53-2.573-0.53c-0.096,0-0.187,0.01-0.281,0.015
	c-1.098-4.667-5.282-8.141-10.283-8.141c-5.834,0-10.565,4.729-10.565,10.565c0,1.107,0.171,2.175,0.487,3.178
	c-2.354,0.979-4.007,3.298-4.007,6.005c0,0.521,0.067,1.026,0.184,1.514h-5.504C18.997,48.86,18.278,49.029,17.632,49.33z"/>
<linearGradient id="XMLID_8_" gradientUnits="userSpaceOnUse" x1="17.2065" y1="44.7441" x2="56.0157" y2="44.7441">
	<stop  offset="0" style="stop-color:#D1D3D4"/>
	<stop  offset="1" style="stop-color:#FFFFFF"/>
</linearGradient>
<path id="XMLID_1801_" fill="url(#XMLID_8_)" d="M66.682,50.295c0.111-0.478,0.177-0.974,0.177-1.487c0-3.591-2.909-6.502-6.5-6.502
	c-0.601,0-1.182,0.088-1.733,0.241c-0.539-3.045-3.194-5.36-6.395-5.36c-0.096,0-0.188,0.01-0.281,0.014
	c-1.098-4.666-5.283-8.14-10.283-8.14c-5.835,0-10.565,4.729-10.565,10.564c0,1.108,0.172,2.176,0.488,3.179
	c-2.354,0.979-4.009,3.297-4.009,6.005c0,0.522,0.068,1.027,0.184,1.515h-5.503c-2.792,0-5.054,2.262-5.054,5.053l0,0
	c0,2.792,2.262,5.054,5.054,5.054h6.646h18.779h17.955c2.826,0,5.12-2.292,5.12-5.119l0,0
	C70.761,52.839,69.009,50.776,66.682,50.295z"/>
<path id="XMLID_1800_" fill="#E6E7E8" d="M66.682,50.295c0.111-0.478,0.177-0.974,0.177-1.487c0-3.591-2.909-6.502-6.5-6.502
	c-0.601,0-1.182,0.088-1.733,0.241c-0.535-3.02-3.149-5.319-6.313-5.358c-0.188,10.185-6.119,18.966-14.692,23.24h10.066h17.955
	c2.826,0,5.12-2.292,5.12-5.119l0,0C70.761,52.839,69.009,50.776,66.682,50.295z"/>
<path id="XMLID_1799_" fill="#F1F2F2" d="M65.69,46.885c0.349,1.376-1.108,2.505-2.317,1.595c-0.344-0.256-0.586-0.668-0.779-1.067
	c-0.268-0.55-0.489-1.136-0.497-1.681c-0.021-1.588,1.313-1.418,2.44-0.521C65.066,45.63,65.526,46.243,65.69,46.885z"/>
<path id="XMLID_1798_" fill="#F1F2F2" d="M20.821,51.313c1.358-0.419,2.557,0.979,1.709,2.233c-0.24,0.356-0.64,0.616-1.028,0.829
	c-0.537,0.295-1.11,0.547-1.654,0.582c-1.586,0.101-1.482-1.242-0.643-2.413C19.599,51.997,20.188,51.507,20.821,51.313z"/>
<path id="XMLID_1797_" fill="#FFFFFF" d="M38.387,30.623c1.958-0.441,3.539,1.69,2.232,3.382c-0.373,0.48-0.96,0.804-1.528,1.065
	c-0.784,0.36-1.62,0.653-2.393,0.639c-2.255-0.035-1.993-1.938-0.704-3.512C36.598,31.46,37.475,30.83,38.387,30.623z"/>
<radialGradient id="XMLID_9_" cx="286.9326" cy="-3091.1514" r="5.1316" gradientTransform="matrix(-1 0 0 -1 333.3926 -3040.6006)" gradientUnits="userSpaceOnUse">
	<stop  offset="0.2927" style="stop-color:#414042"/>
	<stop  offset="1" style="stop-color:#000000"/>
</radialGradient>
<path id="XMLID_1796_" fill="url(#XMLID_9_)" d="M46.367,49.101c-1.708,0-3.092,1.385-3.092,3.093h6.184
	C49.459,50.485,48.074,49.101,46.367,49.101z"/>
<g id="XMLID_1793_">
	<radialGradient id="XMLID_10_" cx="39.9639" cy="45.3594" r="0.9748" gradientUnits="userSpaceOnUse">
		<stop  offset="0" style="stop-color:#414042"/>
		<stop  offset="1" style="stop-color:#000000"/>
	</radialGradient>
	<circle id="XMLID_1795_" fill="url(#XMLID_10_)" cx="39.605" cy="45.719" r="0.975"/>
	<radialGradient id="XMLID_11_" cx="52.417" cy="45.2822" r="0.9748" gradientUnits="userSpaceOnUse">
		<stop  offset="0" style="stop-color:#414042"/>
		<stop  offset="1" style="stop-color:#000000"/>
	</radialGradient>
	<circle id="XMLID_1794_" fill="url(#XMLID_11_)" cx="52.134" cy="45.719" r="0.975"/>
</g>
<g id="XMLID_1790_">
	
		<radialGradient id="XMLID_12_" cx="35.8296" cy="64.9365" r="2.2246" gradientTransform="matrix(1 0 0 1.376 0 -24.4135)" gradientUnits="userSpaceOnUse">
		<stop  offset="0.0428" style="stop-color:#A8E0F9"/>
		<stop  offset="0.6495" style="stop-color:#74D1F6"/>
		<stop  offset="1" style="stop-color:#27A8E0"/>
	</radialGradient>
	<path id="XMLID_1792_" fill="url(#XMLID_12_)" d="M36.353,62.119c-0.081-0.142-0.282-0.142-0.364,0
		c-0.677,1.175-2.858,5.343,0.183,5.343C39.211,67.462,37.03,63.294,36.353,62.119z"/>
	<path id="XMLID_1791_" fill="#F1F2F2" d="M34.877,66.36c0.008-0.368,0.449-0.551,0.688-0.24c0.069,0.088,0.101,0.207,0.122,0.319
		c0.029,0.155,0.045,0.317,0.009,0.454c-0.102,0.398-0.425,0.265-0.645-0.036C34.948,66.717,34.875,66.531,34.877,66.36z"/>
</g>
<g id="XMLID_1787_">
	
		<radialGradient id="XMLID_13_" cx="56.2217" cy="64.9365" r="2.2246" gradientTransform="matrix(1 0 0 1.376 0 -24.4135)" gradientUnits="userSpaceOnUse">
		<stop  offset="0.0428" style="stop-color:#A8E0F9"/>
		<stop  offset="0.6495" style="stop-color:#74D1F6"/>
		<stop  offset="1" style="stop-color:#27A8E0"/>
	</radialGradient>
	<path id="XMLID_1789_" fill="url(#XMLID_13_)" d="M56.745,62.119c-0.079-0.142-0.282-0.142-0.364,0
		c-0.677,1.175-2.858,5.343,0.183,5.343S57.421,63.294,56.745,62.119z"/>
	<path id="XMLID_1788_" fill="#F1F2F2" d="M55.271,66.36c0.006-0.368,0.447-0.551,0.687-0.24c0.069,0.088,0.101,0.207,0.122,0.319
		c0.029,0.155,0.043,0.317,0.009,0.454c-0.102,0.398-0.426,0.265-0.646-0.036C55.341,66.717,55.268,66.531,55.271,66.36z"/>
</g>
<g id="XMLID_1784_">
	
		<radialGradient id="XMLID_14_" cx="44.2109" cy="68.9814" r="2.2247" gradientTransform="matrix(1 0 0 1.376 0 -25.9343)" gradientUnits="userSpaceOnUse">
		<stop  offset="0.0428" style="stop-color:#A8E0F9"/>
		<stop  offset="0.6495" style="stop-color:#74D1F6"/>
		<stop  offset="1" style="stop-color:#27A8E0"/>
	</radialGradient>
	<path id="XMLID_1786_" fill="url(#XMLID_14_)" d="M44.733,66.164c-0.08-0.141-0.282-0.141-0.363,0
		c-0.677,1.177-2.858,5.344,0.182,5.344C47.591,71.508,45.41,67.341,44.733,66.164z"/>
	<path id="XMLID_1785_" fill="#F1F2F2" d="M43.26,70.406c0.006-0.368,0.447-0.551,0.688-0.24c0.068,0.087,0.099,0.206,0.12,0.319
		c0.03,0.155,0.046,0.317,0.011,0.453c-0.104,0.4-0.426,0.266-0.646-0.036C43.329,70.762,43.256,70.577,43.26,70.406z"/>
</g>
</svg>
