<?xml version="1.0" encoding="utf-8"?>
<!-- Generator: Adobe Illustrator 16.0.0, SVG Export Plug-In . SVG Version: 6.00 Build 0)  -->
<!DOCTYPE svg PUBLIC "-//W3C//DTD SVG 1.1//EN" "http://www.w3.org/Graphics/SVG/1.1/DTD/svg11.dtd">
<svg version="1.1" id="Layer_1" xmlns="http://www.w3.org/2000/svg" xmlns:xlink="http://www.w3.org/1999/xlink" x="0px" y="0px"
	 width="72.667px" height="72px" viewBox="0 0 72.667 72" enable-background="new 0 0 72.667 72" xml:space="preserve">
<path id="XMLID_1727_" fill="#D1D3D4" d="M4.205,28.273c1.331-0.41,2.508,0.961,1.676,2.193c-0.236,0.349-0.627,0.603-1.008,0.812
	c-0.525,0.29-1.09,0.536-1.623,0.57c-1.556,0.101-1.454-1.216-0.63-2.365C3.005,28.945,3.583,28.465,4.205,28.273z"/>
<g id="XMLID_1318_">
	<g id="XMLID_1360_">
		<radialGradient id="XMLID_5_" cx="34.2314" cy="33.7705" r="33.6776" gradientUnits="userSpaceOnUse">
			<stop  offset="0.1687" style="stop-color:#27AAE1"/>
			<stop  offset="0.5273" style="stop-color:#356D9D"/>
			<stop  offset="0.6045" style="stop-color:#336593"/>
			<stop  offset="0.7428" style="stop-color:#2F517B"/>
			<stop  offset="0.925" style="stop-color:#27305A"/>
			<stop  offset="0.9859" style="stop-color:#24244F"/>
		</radialGradient>
		<circle id="XMLID_1374_" fill="url(#XMLID_5_)" cx="34.231" cy="33.771" r="33.199"/>
		<radialGradient id="XMLID_6_" cx="40.7119" cy="10.3135" r="0.8284" gradientUnits="userSpaceOnUse">
			<stop  offset="0.1141" style="stop-color:#FFFFFF"/>
			<stop  offset="0.464" style="stop-color:#D1D3D4"/>
			<stop  offset="0.9525" style="stop-color:#808285"/>
		</radialGradient>
		<circle id="XMLID_1373_" fill="url(#XMLID_6_)" cx="40.927" cy="10.474" r="0.714"/>
		<radialGradient id="XMLID_7_" cx="59.373" cy="23.1797" r="0.8281" gradientUnits="userSpaceOnUse">
			<stop  offset="0.1141" style="stop-color:#FFFFFF"/>
			<stop  offset="0.464" style="stop-color:#D1D3D4"/>
			<stop  offset="0.9525" style="stop-color:#808285"/>
		</radialGradient>
		<circle id="XMLID_1372_" fill="url(#XMLID_7_)" cx="59.587" cy="23.341" r="0.713"/>
		<radialGradient id="XMLID_8_" cx="8.4795" cy="45.5195" r="0.8286" gradientUnits="userSpaceOnUse">
			<stop  offset="0.1141" style="stop-color:#FFFFFF"/>
			<stop  offset="0.464" style="stop-color:#D1D3D4"/>
			<stop  offset="0.9525" style="stop-color:#808285"/>
		</radialGradient>
		<circle id="XMLID_1371_" fill="url(#XMLID_8_)" cx="8.695" cy="45.681" r="0.714"/>
		<radialGradient id="XMLID_9_" cx="48.6328" cy="59.0479" r="0.8284" gradientUnits="userSpaceOnUse">
			<stop  offset="0.1141" style="stop-color:#FFFFFF"/>
			<stop  offset="0.464" style="stop-color:#D1D3D4"/>
			<stop  offset="0.9525" style="stop-color:#808285"/>
		</radialGradient>
		<circle id="XMLID_1370_" fill="url(#XMLID_9_)" cx="48.848" cy="59.208" r="0.713"/>
		<radialGradient id="XMLID_10_" cx="13.8066" cy="18.8242" r="0.8284" gradientUnits="userSpaceOnUse">
			<stop  offset="0.1141" style="stop-color:#FFFFFF"/>
			<stop  offset="0.464" style="stop-color:#D1D3D4"/>
			<stop  offset="0.9525" style="stop-color:#808285"/>
		</radialGradient>
		<circle id="XMLID_1369_" fill="url(#XMLID_10_)" cx="14.021" cy="18.984" r="0.714"/>
		<radialGradient id="XMLID_11_" cx="17.1162" cy="18.1899" r="0.4142" gradientUnits="userSpaceOnUse">
			<stop  offset="0.1141" style="stop-color:#FFFFFF"/>
			<stop  offset="0.464" style="stop-color:#D1D3D4"/>
			<stop  offset="0.9525" style="stop-color:#808285"/>
		</radialGradient>
		<circle id="XMLID_1368_" fill="url(#XMLID_11_)" cx="17.223" cy="18.271" r="0.357"/>
		<radialGradient id="XMLID_12_" cx="10.2529" cy="46.6738" r="0.4138" gradientUnits="userSpaceOnUse">
			<stop  offset="0.1141" style="stop-color:#FFFFFF"/>
			<stop  offset="0.464" style="stop-color:#D1D3D4"/>
			<stop  offset="0.9525" style="stop-color:#808285"/>
		</radialGradient>
		<circle id="XMLID_1367_" fill="url(#XMLID_12_)" cx="10.36" cy="46.753" r="0.357"/>
		<radialGradient id="XMLID_13_" cx="46.8223" cy="56.6133" r="0.4144" gradientUnits="userSpaceOnUse">
			<stop  offset="0.1141" style="stop-color:#FFFFFF"/>
			<stop  offset="0.464" style="stop-color:#D1D3D4"/>
			<stop  offset="0.9525" style="stop-color:#808285"/>
		</radialGradient>
		<circle id="XMLID_1366_" fill="url(#XMLID_13_)" cx="46.929" cy="56.693" r="0.357"/>
		<radialGradient id="XMLID_14_" cx="33.4395" cy="58.4141" r="0.4142" gradientUnits="userSpaceOnUse">
			<stop  offset="0.1141" style="stop-color:#FFFFFF"/>
			<stop  offset="0.464" style="stop-color:#D1D3D4"/>
			<stop  offset="0.9525" style="stop-color:#808285"/>
		</radialGradient>
		<circle id="XMLID_1365_" fill="url(#XMLID_14_)" cx="33.547" cy="58.495" r="0.357"/>
		<radialGradient id="XMLID_15_" cx="60.5508" cy="26.7104" r="0.4144" gradientUnits="userSpaceOnUse">
			<stop  offset="0.1141" style="stop-color:#FFFFFF"/>
			<stop  offset="0.464" style="stop-color:#D1D3D4"/>
			<stop  offset="0.9525" style="stop-color:#808285"/>
		</radialGradient>
		<circle id="XMLID_1364_" fill="url(#XMLID_15_)" cx="60.658" cy="26.791" r="0.357"/>
		<radialGradient id="XMLID_16_" cx="51.0078" cy="12.6392" r="0.4144" gradientUnits="userSpaceOnUse">
			<stop  offset="0.1141" style="stop-color:#FFFFFF"/>
			<stop  offset="0.464" style="stop-color:#D1D3D4"/>
			<stop  offset="0.9525" style="stop-color:#808285"/>
		</radialGradient>
		<circle id="XMLID_1363_" fill="url(#XMLID_16_)" cx="51.116" cy="12.72" r="0.357"/>
		<radialGradient id="XMLID_17_" cx="38.7627" cy="10.3936" r="0.4144" gradientUnits="userSpaceOnUse">
			<stop  offset="0.1141" style="stop-color:#FFFFFF"/>
			<stop  offset="0.464" style="stop-color:#D1D3D4"/>
			<stop  offset="0.9525" style="stop-color:#808285"/>
		</radialGradient>
		<circle id="XMLID_1362_" fill="url(#XMLID_17_)" cx="38.87" cy="10.474" r="0.358"/>
		<radialGradient id="XMLID_18_" cx="35.0977" cy="5.2134" r="0.4142" gradientUnits="userSpaceOnUse">
			<stop  offset="0.1141" style="stop-color:#FFFFFF"/>
			<stop  offset="0.464" style="stop-color:#D1D3D4"/>
			<stop  offset="0.9525" style="stop-color:#808285"/>
		</radialGradient>
		<circle id="XMLID_1361_" fill="url(#XMLID_18_)" cx="35.205" cy="5.294" r="0.357"/>
	</g>
	<g id="XMLID_1336_">
		
			<radialGradient id="XMLID_19_" cx="-13.5435" cy="278.1914" r="32.0934" gradientTransform="matrix(0.9542 -0.2991 0.2991 0.9542 -48.4573 -241.6822)" gradientUnits="userSpaceOnUse">
			<stop  offset="0.1141" style="stop-color:#FFE5C2"/>
			<stop  offset="0.6835" style="stop-color:#FEC77C"/>
			<stop  offset="0.9525" style="stop-color:#C9AC68"/>
		</radialGradient>
		<circle id="XMLID_1359_" fill="url(#XMLID_19_)" cx="34.231" cy="33.771" r="23.304"/>
		<g id="XMLID_1355_">
			<radialGradient id="XMLID_20_" cx="24.5791" cy="28.8091" r="5.944" gradientUnits="userSpaceOnUse">
				<stop  offset="0" style="stop-color:#414042"/>
				<stop  offset="1" style="stop-color:#000000"/>
			</radialGradient>
			<path id="XMLID_1358_" fill="url(#XMLID_20_)" d="M27.518,26.907L27.518,26.907c0,1.563-1.268,2.831-2.832,2.831
				s-2.831-1.268-2.831-2.831l0,0h-0.751l0,0c0,1.978,1.603,3.581,3.582,3.581s3.582-1.604,3.582-3.581l0,0H27.518z"/>
			<radialGradient id="XMLID_21_" cx="43.6699" cy="28.8091" r="5.9433" gradientUnits="userSpaceOnUse">
				<stop  offset="0" style="stop-color:#414042"/>
				<stop  offset="1" style="stop-color:#000000"/>
			</radialGradient>
			<path id="XMLID_1357_" fill="url(#XMLID_21_)" d="M46.608,26.907L46.608,26.907c0,1.563-1.268,2.831-2.831,2.831
				s-2.831-1.268-2.831-2.831l0,0h-0.75l0,0c0,1.978,1.604,3.581,3.582,3.581c1.978,0,3.581-1.604,3.581-3.581l0,0H46.608z"/>
			<radialGradient id="XMLID_22_" cx="34.1382" cy="40.0889" r="4.8563" gradientUnits="userSpaceOnUse">
				<stop  offset="0" style="stop-color:#414042"/>
				<stop  offset="1" style="stop-color:#000000"/>
			</radialGradient>
			<path id="XMLID_1356_" fill="url(#XMLID_22_)" d="M36.433,39.131c-0.519,0.642-1.312,1.052-2.201,1.052s-1.682-0.41-2.201-1.052
				h-0.907c0.618,1.077,1.778,1.804,3.108,1.804s2.491-0.727,3.108-1.804H36.433z"/>
		</g>
		
			<radialGradient id="XMLID_23_" cx="2.0767" cy="278.5654" r="4.7861" gradientTransform="matrix(0.9542 -0.2991 0.2991 0.9542 -48.4573 -241.6822)" gradientUnits="userSpaceOnUse">
			<stop  offset="0" style="stop-color:#FFE5C2"/>
			<stop  offset="0.5476" style="stop-color:#FEC77C"/>
			<stop  offset="0.9525" style="stop-color:#C9AC68"/>
		</radialGradient>
		<circle id="XMLID_1354_" opacity="0.37" fill="url(#XMLID_23_)" cx="36.844" cy="23.503" r="4.786"/>
		
			<radialGradient id="XMLID_24_" cx="57.0518" cy="310.2832" r="4.7861" gradientTransform="matrix(0.8941 -0.2803 0.2842 0.9067 -91.5492 -224.6713)" gradientUnits="userSpaceOnUse">
			<stop  offset="0" style="stop-color:#FFE5C2"/>
			<stop  offset="0.5476" style="stop-color:#FEC77C"/>
			<stop  offset="0.9525" style="stop-color:#C9AC68"/>
		</radialGradient>
		<path id="XMLID_1353_" opacity="0.37" fill="url(#XMLID_24_)" d="M51.923,39.329c0.751,2.396-0.556,4.939-2.919,5.681
			c-2.362,0.74-4.888-0.602-5.64-2.998c-0.75-2.396,0.557-4.94,2.92-5.681C48.646,35.589,51.172,36.933,51.923,39.329z"/>
		
			<radialGradient id="XMLID_25_" cx="41.1436" cy="318.6016" r="1.1289" gradientTransform="matrix(0.8941 -0.2803 0.2842 0.9067 -91.5492 -224.6713)" gradientUnits="userSpaceOnUse">
			<stop  offset="0" style="stop-color:#FFE5C2"/>
			<stop  offset="0.5476" style="stop-color:#FEC77C"/>
			<stop  offset="0.9525" style="stop-color:#C9AC68"/>
		</radialGradient>
		<path id="XMLID_1352_" opacity="0.37" fill="url(#XMLID_25_)" d="M36.793,52.356c0.177,0.564-0.13,1.165-0.689,1.34
			c-0.557,0.174-1.153-0.142-1.331-0.708c-0.176-0.564,0.132-1.166,0.689-1.34C36.021,51.474,36.616,51.789,36.793,52.356z"/>
		
			<radialGradient id="XMLID_26_" cx="-20.2119" cy="285.3379" r="2.3931" gradientTransform="matrix(0.9542 -0.2991 0.2991 0.9542 -48.4573 -241.6822)" gradientUnits="userSpaceOnUse">
			<stop  offset="0" style="stop-color:#FFE5C2"/>
			<stop  offset="0.5476" style="stop-color:#FEC77C"/>
			<stop  offset="0.9525" style="stop-color:#C9AC68"/>
		</radialGradient>
		<circle id="XMLID_1351_" opacity="0.37" fill="url(#XMLID_26_)" cx="17.602" cy="36.633" r="2.393"/>
		
			<radialGradient id="XMLID_27_" cx="-0.7446" cy="288.9316" r="2.3928" gradientTransform="matrix(0.9542 -0.2991 0.2991 0.9542 -48.4573 -241.6822)" gradientUnits="userSpaceOnUse">
			<stop  offset="0" style="stop-color:#FFE5C2"/>
			<stop  offset="0.5476" style="stop-color:#FEC77C"/>
			<stop  offset="0.9525" style="stop-color:#C9AC68"/>
		</radialGradient>
		<circle id="XMLID_1350_" opacity="0.37" fill="url(#XMLID_27_)" cx="37.253" cy="34.24" r="2.393"/>
		
			<radialGradient id="XMLID_28_" cx="-6.3389" cy="272.7666" r="2.3936" gradientTransform="matrix(0.9542 -0.2991 0.2991 0.9542 -48.4573 -241.6822)" gradientUnits="userSpaceOnUse">
			<stop  offset="0" style="stop-color:#FFE5C2"/>
			<stop  offset="0.5476" style="stop-color:#FEC77C"/>
			<stop  offset="0.9525" style="stop-color:#C9AC68"/>
		</radialGradient>
		<circle id="XMLID_1349_" opacity="0.37" fill="url(#XMLID_28_)" cx="27.08" cy="20.488" r="2.393"/>
		
			<radialGradient id="XMLID_29_" cx="-7.1475" cy="287.1416" r="1.7905" gradientTransform="matrix(0.9542 -0.2991 0.2991 0.9542 -48.4573 -241.6822)" gradientUnits="userSpaceOnUse">
			<stop  offset="0" style="stop-color:#FFE5C2"/>
			<stop  offset="0.5476" style="stop-color:#FEC77C"/>
			<stop  offset="0.9525" style="stop-color:#C9AC68"/>
		</radialGradient>
		<circle id="XMLID_1348_" opacity="0.37" fill="url(#XMLID_29_)" cx="30.608" cy="34.445" r="1.791"/>
		
			<radialGradient id="XMLID_30_" cx="-18.4209" cy="298.1777" r="1.7908" gradientTransform="matrix(0.9542 -0.2991 0.2991 0.9542 -48.4573 -241.6822)" gradientUnits="userSpaceOnUse">
			<stop  offset="0" style="stop-color:#FFE5C2"/>
			<stop  offset="0.5476" style="stop-color:#FEC77C"/>
			<stop  offset="0.9525" style="stop-color:#C9AC68"/>
		</radialGradient>
		<circle id="XMLID_1347_" opacity="0.37" fill="url(#XMLID_30_)" cx="23.151" cy="48.348" r="1.791"/>
		
			<radialGradient id="XMLID_31_" cx="-18.4214" cy="281.2959" r="0.8958" gradientTransform="matrix(0.9542 -0.2991 0.2991 0.9542 -48.4573 -241.6822)" gradientUnits="userSpaceOnUse">
			<stop  offset="0" style="stop-color:#FFE5C2"/>
			<stop  offset="0.5476" style="stop-color:#FEC77C"/>
			<stop  offset="0.9525" style="stop-color:#C9AC68"/>
		</radialGradient>
		<circle id="XMLID_1346_" opacity="0.37" fill="url(#XMLID_31_)" cx="18.101" cy="32.239" r="0.896"/>
		
			<radialGradient id="XMLID_32_" cx="-10.0659" cy="276.6533" r="0.8953" gradientTransform="matrix(0.9542 -0.2991 0.2991 0.9542 -48.4573 -241.6822)" gradientUnits="userSpaceOnUse">
			<stop  offset="0" style="stop-color:#FFE5C2"/>
			<stop  offset="0.5476" style="stop-color:#FEC77C"/>
			<stop  offset="0.9525" style="stop-color:#C9AC68"/>
		</radialGradient>
		<circle id="XMLID_1345_" opacity="0.37" fill="url(#XMLID_32_)" cx="24.686" cy="25.311" r="0.895"/>
		
			<radialGradient id="XMLID_33_" cx="14.8667" cy="291.1279" r="0.8958" gradientTransform="matrix(0.9542 -0.2991 0.2991 0.9542 -48.4573 -241.6822)" gradientUnits="userSpaceOnUse">
			<stop  offset="0" style="stop-color:#FFE5C2"/>
			<stop  offset="0.5476" style="stop-color:#FEC77C"/>
			<stop  offset="0.9525" style="stop-color:#C9AC68"/>
		</radialGradient>
		<circle id="XMLID_1344_" opacity="0.37" fill="url(#XMLID_33_)" cx="52.806" cy="31.666" r="0.896"/>
		
			<radialGradient id="XMLID_34_" cx="10.4634" cy="275.2998" r="1.6458" gradientTransform="matrix(0.9542 -0.2991 0.2991 0.9542 -48.4573 -241.6822)" gradientUnits="userSpaceOnUse">
			<stop  offset="0" style="stop-color:#FFE5C2"/>
			<stop  offset="0.5476" style="stop-color:#FEC77C"/>
			<stop  offset="0.9525" style="stop-color:#C9AC68"/>
		</radialGradient>
		<circle id="XMLID_1343_" opacity="0.37" fill="url(#XMLID_34_)" cx="43.87" cy="17.879" r="1.646"/>
		
			<radialGradient id="XMLID_35_" cx="-3.4868" cy="303.5889" r="1.6455" gradientTransform="matrix(0.9542 -0.2991 0.2991 0.9542 -48.4573 -241.6822)" gradientUnits="userSpaceOnUse">
			<stop  offset="0" style="stop-color:#FFE5C2"/>
			<stop  offset="0.5476" style="stop-color:#FEC77C"/>
			<stop  offset="0.9525" style="stop-color:#C9AC68"/>
		</radialGradient>
		<circle id="XMLID_1342_" opacity="0.37" fill="url(#XMLID_35_)" cx="39.02" cy="49.045" r="1.645"/>
		
			<radialGradient id="XMLID_36_" cx="1.7373" cy="269.832" r="0.877" gradientTransform="matrix(0.9542 -0.2991 0.2991 0.9542 -48.4573 -241.6822)" gradientUnits="userSpaceOnUse">
			<stop  offset="0" style="stop-color:#FFE5C2"/>
			<stop  offset="0.5476" style="stop-color:#FEC77C"/>
			<stop  offset="0.9525" style="stop-color:#C9AC68"/>
		</radialGradient>
		<circle id="XMLID_1341_" opacity="0.37" fill="url(#XMLID_36_)" cx="33.908" cy="15.271" r="0.877"/>
		
			<radialGradient id="XMLID_37_" cx="-20.019" cy="290.3955" r="32.0524" gradientTransform="matrix(0.9542 -0.2991 0.2991 0.9542 -48.4573 -241.6822)" gradientUnits="userSpaceOnUse">
			<stop  offset="0.1141" style="stop-color:#FFE5C2"/>
			<stop  offset="0.6835" style="stop-color:#FEC77C"/>
			<stop  offset="0.9525" style="stop-color:#C9AC68"/>
		</radialGradient>
		<path id="XMLID_1338_" opacity="0.25" fill="url(#XMLID_37_)" d="M51.072,19.346c0.325,0.742,0.612,1.505,0.857,2.289
			c0.883,2.815,1.192,5.717,0.941,8.569c0.598,0.027,1.145,0.421,1.333,1.024c0.241,0.771-0.188,1.595-0.961,1.836
			c-0.275,0.087-0.559,0.086-0.819,0.015c-0.3,1.337-0.727,2.651-1.278,3.929c0.594,0.576,1.057,1.307,1.321,2.151
			c0.844,2.692-0.632,5.562-3.291,6.396c-1.381,0.432-2.811,0.232-3.985-0.435c-1.292,1.104-2.712,2.058-4.239,2.842
			c0.073,0.132,0.136,0.272,0.182,0.422c0.366,1.166-0.286,2.411-1.451,2.776c-1.166,0.365-2.412-0.286-2.778-1.451
			c-0.013-0.044-0.025-0.088-0.036-0.132c-3.897,1.116-7.942,1.143-11.779,0.115c-0.289,0.418-0.712,0.747-1.233,0.909
			c-1.242,0.39-2.569-0.305-2.959-1.546c-0.104-0.334-0.13-0.673-0.089-0.998c-0.099-0.05-0.197-0.099-0.294-0.149
			c-2.543-1.33-4.761-3.103-6.574-5.219c2.013,4.606,5.506,8.363,10.024,10.724c5.247,2.743,11.247,3.277,16.896,1.507
			s10.27-5.636,13.013-10.882s3.277-11.247,1.506-16.896C54.469,24.23,52.999,21.594,51.072,19.346z M36.275,54.24
			c-0.856,0.269-1.774-0.216-2.045-1.081c-0.271-0.864,0.205-1.786,1.063-2.055c0.856-0.269,1.774,0.216,2.044,1.081
			C37.609,53.05,37.132,53.972,36.275,54.24z"/>
		<path id="XMLID_1337_" opacity="0.56" fill="#F1F2F2" d="M16.727,20.314c1.645-1.345,3.638-0.189,2.912,1.97
			c-0.205,0.612-0.647,1.188-1.09,1.697c-0.609,0.704-1.283,1.372-1.981,1.734c-2.041,1.059-2.313-0.783-1.574-2.825
			C15.339,21.934,15.958,20.942,16.727,20.314z"/>
	</g>
	<g id="XMLID_1319_">
		<g id="XMLID_1333_">
			<radialGradient id="XMLID_38_" cx="12.0737" cy="45.8633" r="24.9942" gradientUnits="userSpaceOnUse">
				<stop  offset="0" style="stop-color:#E6E7E8"/>
				<stop  offset="1" style="stop-color:#939598"/>
			</radialGradient>
			<path id="XMLID_1335_" opacity="0.6" fill="url(#XMLID_38_)" d="M7.953,44.198c0.019,0,0.038,0.003,0.057,0.003
				c-0.036-0.317-0.057-0.64-0.057-0.966c0-4.611,3.739-8.35,8.35-8.35c3.998,0,7.336,2.81,8.155,6.563
				c1.014-0.615,2.2-0.978,3.473-0.978c3.706,0,6.709,3.004,6.709,6.71c0,0.133-0.012,0.262-0.02,0.393
				c0.32-0.06,0.651-0.095,0.989-0.095c2.923,0,5.293,2.37,5.293,5.292c0,2.923-2.37,5.293-5.293,5.293
				c-0.744,0-1.451-0.155-2.094-0.432c-1.203,1.143-2.825,1.849-4.615,1.849c-0.221,0-0.438-0.013-0.653-0.033
				c-1.23,1.433-3.051,2.344-5.087,2.344c-1.656,0-3.17-0.604-4.34-1.599c-1.145,0.905-2.586,1.449-4.158,1.449
				c-2.761,0-5.131-1.669-6.161-4.053c-0.181,0.015-0.364,0.027-0.548,0.027c-3.705,0-6.709-3.004-6.709-6.709
				S4.248,44.198,7.953,44.198z"/>
			<path id="XMLID_1334_" opacity="0.78" fill="#E6E7E8" d="M24.035,40.086c-1.243-3.05-4.237-5.2-7.732-5.2
				c-4.611,0-8.35,3.738-8.35,8.35c0,0.326,0.021,0.648,0.057,0.966c-0.02,0-0.038-0.003-0.057-0.003
				c-3.705,0-6.709,3.004-6.709,6.709s3.004,6.709,6.709,6.709c0.011,0,0.021,0,0.032-0.001
				C16.525,55.962,23.125,48.869,24.035,40.086z"/>
		</g>
		<linearGradient id="XMLID_39_" gradientUnits="userSpaceOnUse" x1="30.002" y1="41.6641" x2="59.93" y2="41.6641">
			<stop  offset="0" style="stop-color:#D1D3D4"/>
			<stop  offset="1" style="stop-color:#FFFFFF"/>
		</linearGradient>
		<path id="XMLID_1332_" opacity="0.51" fill="url(#XMLID_39_)" d="M68.155,45.945c0.086-0.369,0.137-0.753,0.137-1.147
			c0-2.77-2.245-5.014-5.015-5.014c-0.462,0-0.908,0.068-1.334,0.186c-0.417-2.349-2.464-4.134-4.932-4.134
			c-0.073,0-0.146,0.007-0.219,0.011c-0.845-3.599-4.073-6.278-7.929-6.278c-4.5,0-8.148,3.647-8.148,8.147
			c0,0.854,0.131,1.677,0.376,2.451c-1.814,0.755-3.091,2.543-3.091,4.631c0,0.402,0.053,0.792,0.142,1.167h-4.244
			c-2.153,0-3.897,1.745-3.897,3.898l0,0c0,2.152,1.744,3.896,3.897,3.896h5.126h14.481h13.846c2.181,0,3.949-1.768,3.949-3.947l0,0
			C71.301,47.906,69.95,46.316,68.155,45.945z"/>
		<path id="XMLID_1331_" opacity="0.81" fill="#E6E7E8" d="M68.155,45.945c0.086-0.369,0.137-0.753,0.137-1.147
			c0-2.77-2.245-5.014-5.015-5.014c-0.462,0-0.908,0.068-1.334,0.186c-0.394-2.215-2.236-3.926-4.514-4.115
			c-0.604,7.56-4.814,14.102-10.909,17.905h6.985h13.846c2.181,0,3.949-1.768,3.949-3.947l0,0
			C71.301,47.906,69.95,46.316,68.155,45.945z"/>
		<path id="XMLID_1330_" fill="#F1F2F2" d="M67.391,43.314c0.27,1.062-0.854,1.933-1.788,1.231c-0.265-0.2-0.449-0.517-0.598-0.824
			c-0.208-0.424-0.379-0.876-0.385-1.296c-0.017-1.226,1.013-1.094,1.883-0.402C66.91,42.347,67.264,42.819,67.391,43.314z"/>
		<path id="XMLID_1329_" opacity="0.46" fill="#F1F2F2" d="M32.789,46.729c1.047-0.322,1.973,0.756,1.318,1.724
			c-0.186,0.274-0.493,0.474-0.792,0.639c-0.414,0.228-0.857,0.422-1.276,0.448c-1.223,0.079-1.144-0.956-0.496-1.86
			C31.847,47.257,32.301,46.88,32.789,46.729z"/>
		<path id="XMLID_1328_" opacity="0.68" fill="#FFFFFF" d="M46.336,30.774c1.51-0.34,2.729,1.304,1.72,2.608
			c-0.285,0.37-0.739,0.62-1.178,0.821c-0.604,0.278-1.249,0.503-1.845,0.494c-1.739-0.027-1.537-1.495-0.543-2.708
			C44.955,31.42,45.631,30.934,46.336,30.774z"/>
		<g id="XMLID_1326_">
			<radialGradient id="XMLID_40_" cx="50.6836" cy="45.2109" r="1.5848" gradientUnits="userSpaceOnUse">
				<stop  offset="0" style="stop-color:#414042"/>
				<stop  offset="1" style="stop-color:#000000"/>
			</radialGradient>
			<circle id="XMLID_1327_" fill="url(#XMLID_40_)" cx="50.225" cy="45.92" r="1.584"/>
		</g>
		<radialGradient id="XMLID_41_" cx="46.29" cy="41.499" r="2.686" gradientUnits="userSpaceOnUse">
			<stop  offset="0" style="stop-color:#414042"/>
			<stop  offset="1" style="stop-color:#000000"/>
		</radialGradient>
		<path id="XMLID_1325_" fill="url(#XMLID_41_)" d="M47.617,40.64L47.617,40.64c0,0.706-0.571,1.279-1.277,1.279
			c-0.707,0-1.279-0.573-1.279-1.279l0,0h-0.34l0,0c0,0.894,0.725,1.618,1.619,1.618c0.893,0,1.617-0.725,1.617-1.618l0,0H47.617z"
			/>
		<radialGradient id="XMLID_42_" cx="54.9141" cy="41.499" r="2.6873" gradientUnits="userSpaceOnUse">
			<stop  offset="0" style="stop-color:#414042"/>
			<stop  offset="1" style="stop-color:#000000"/>
		</radialGradient>
		<path id="XMLID_1324_" fill="url(#XMLID_42_)" d="M56.241,40.64L56.241,40.64c0,0.706-0.572,1.279-1.278,1.279
			s-1.279-0.573-1.279-1.279l0,0h-0.339l0,0c0,0.894,0.725,1.618,1.618,1.618s1.619-0.725,1.619-1.618l0,0H56.241z"/>
		<g id="XMLID_1322_">
			<radialGradient id="XMLID_43_" cx="17.2744" cy="50.1836" r="1.5842" gradientUnits="userSpaceOnUse">
				<stop  offset="0" style="stop-color:#414042"/>
				<stop  offset="1" style="stop-color:#000000"/>
			</radialGradient>
			<circle id="XMLID_1323_" fill="url(#XMLID_43_)" cx="16.816" cy="50.892" r="1.585"/>
		</g>
		<radialGradient id="XMLID_44_" cx="12.8813" cy="46.4717" r="2.684" gradientUnits="userSpaceOnUse">
			<stop  offset="0" style="stop-color:#414042"/>
			<stop  offset="1" style="stop-color:#000000"/>
		</radialGradient>
		<path id="XMLID_1321_" fill="url(#XMLID_44_)" d="M14.208,45.611L14.208,45.611c0,0.707-0.573,1.279-1.279,1.279
			c-0.706,0-1.278-0.572-1.278-1.279l0,0h-0.339l0,0c0,0.895,0.723,1.619,1.617,1.619c0.895,0,1.618-0.725,1.618-1.619l0,0H14.208z"
			/>
		<radialGradient id="XMLID_45_" cx="21.5044" cy="46.4717" r="2.6853" gradientUnits="userSpaceOnUse">
			<stop  offset="0" style="stop-color:#414042"/>
			<stop  offset="1" style="stop-color:#000000"/>
		</radialGradient>
		<path id="XMLID_1320_" fill="url(#XMLID_45_)" d="M22.832,45.611L22.832,45.611c0,0.707-0.573,1.279-1.279,1.279
			c-0.706,0-1.279-0.572-1.279-1.279l0,0h-0.339l0,0c0,0.895,0.725,1.619,1.618,1.619c0.894,0,1.618-0.725,1.618-1.619l0,0H22.832z"
			/>
	</g>
</g>
<g id="XMLID_1790_">
	
		<radialGradient id="XMLID_46_" cx="17.9048" cy="64.4971" r="3.232" gradientTransform="matrix(1 0 0 1.376 0 -24.2483)" gradientUnits="userSpaceOnUse">
		<stop  offset="0.0428" style="stop-color:#A8E0F9"/>
		<stop  offset="0.6495" style="stop-color:#74D1F6"/>
		<stop  offset="1" style="stop-color:#27A8E0"/>
	</radialGradient>
	<path id="XMLID_1792_" fill="url(#XMLID_46_)" d="M18.664,60.404c-0.117-0.204-0.41-0.204-0.528,0
		c-0.982,1.709-4.152,7.763,0.265,7.763S19.647,62.113,18.664,60.404z"/>
	<path id="XMLID_1791_" fill="#F1F2F2" d="M16.522,66.566c0.01-0.534,0.65-0.799,0.999-0.349c0.1,0.128,0.146,0.301,0.176,0.464
		c0.043,0.227,0.065,0.462,0.014,0.66c-0.148,0.578-0.617,0.384-0.938-0.053C16.624,67.084,16.519,66.815,16.522,66.566z"/>
</g>
<g id="XMLID_1787_">
	
		<radialGradient id="XMLID_47_" cx="48.873" cy="59.6836" r="3.2325" gradientTransform="matrix(1 0 0 1.376 0 -22.4386)" gradientUnits="userSpaceOnUse">
		<stop  offset="0.0428" style="stop-color:#A8E0F9"/>
		<stop  offset="0.6495" style="stop-color:#74D1F6"/>
		<stop  offset="1" style="stop-color:#27A8E0"/>
	</radialGradient>
	<path id="XMLID_1789_" fill="url(#XMLID_47_)" d="M49.634,55.591c-0.117-0.204-0.41-0.204-0.527,0
		c-0.984,1.709-4.154,7.763,0.264,7.763C53.786,63.354,50.616,57.3,49.634,55.591z"/>
	<path id="XMLID_1788_" fill="#F1F2F2" d="M47.491,61.753c0.01-0.534,0.652-0.799,1-0.349c0.1,0.128,0.145,0.301,0.176,0.464
		c0.043,0.227,0.064,0.462,0.014,0.66c-0.148,0.578-0.617,0.384-0.938-0.053C47.595,62.271,47.487,62.002,47.491,61.753z"/>
</g>
<g id="XMLID_1784_">
	
		<radialGradient id="XMLID_48_" cx="31.8589" cy="64.498" r="3.232" gradientTransform="matrix(1 0 0 1.376 0 -24.2487)" gradientUnits="userSpaceOnUse">
		<stop  offset="0.0428" style="stop-color:#A8E0F9"/>
		<stop  offset="0.6495" style="stop-color:#74D1F6"/>
		<stop  offset="1" style="stop-color:#27A8E0"/>
	</radialGradient>
	<path id="XMLID_1786_" fill="url(#XMLID_48_)" d="M32.619,60.405c-0.117-0.204-0.411-0.204-0.528,0
		c-0.983,1.709-4.153,7.763,0.264,7.763S33.602,62.114,32.619,60.405z"/>
	<path id="XMLID_1785_" fill="#F1F2F2" d="M30.478,66.567c0.009-0.534,0.649-0.8,0.999-0.349c0.1,0.127,0.145,0.301,0.176,0.465
		c0.043,0.226,0.064,0.46,0.014,0.658c-0.149,0.579-0.617,0.385-0.938-0.053C30.578,67.084,30.473,66.816,30.478,66.567z"/>
</g>
<g id="XMLID_1_">
	
		<radialGradient id="XMLID_49_" cx="60.1621" cy="60.54" r="3.232" gradientTransform="matrix(1 0 0 1.376 0 -22.7606)" gradientUnits="userSpaceOnUse">
		<stop  offset="0.0428" style="stop-color:#A8E0F9"/>
		<stop  offset="0.6495" style="stop-color:#74D1F6"/>
		<stop  offset="1" style="stop-color:#27A8E0"/>
	</radialGradient>
	<path id="XMLID_3_" fill="url(#XMLID_49_)" d="M60.922,56.447c-0.117-0.204-0.41-0.204-0.527,0
		c-0.984,1.709-4.154,7.763,0.264,7.763C65.074,64.21,61.904,58.156,60.922,56.447z"/>
	<path id="XMLID_2_" fill="#F1F2F2" d="M58.779,62.609c0.01-0.534,0.652-0.799,1-0.349c0.1,0.128,0.145,0.301,0.176,0.464
		c0.043,0.227,0.064,0.462,0.014,0.66c-0.148,0.578-0.617,0.384-0.938-0.053C58.883,63.127,58.775,62.858,58.779,62.609z"/>
</g>
</svg>
