<?xml version="1.0" encoding="utf-8"?>
<!-- Generator: Adobe Illustrator 16.0.0, SVG Export Plug-In . SVG Version: 6.00 Build 0)  -->
<!DOCTYPE svg PUBLIC "-//W3C//DTD SVG 1.1//EN" "http://www.w3.org/Graphics/SVG/1.1/DTD/svg11.dtd">
<svg version="1.1" id="Layer_1" xmlns="http://www.w3.org/2000/svg" xmlns:xlink="http://www.w3.org/1999/xlink" x="0px" y="0px"
	 width="72.667px" height="72px" viewBox="0 0 72.667 72" enable-background="new 0 0 72.667 72" xml:space="preserve">
<g id="XMLID_1665_">
	
		<linearGradient id="XMLID_2_" gradientUnits="userSpaceOnUse" x1="-2979.7998" y1="59.0186" x2="-2971.9424" y2="59.0186" gradientTransform="matrix(-1 0 0 1 -2915.6543 0)">
		<stop  offset="0.017" style="stop-color:#FFC635"/>
		<stop  offset="1" style="stop-color:#FBB040"/>
	</linearGradient>
	<polygon id="XMLID_1710_" fill="url(#XMLID_2_)" points="63.975,51.7 61.42,56.413 64.146,56.413 59.043,66.337 60.32,59.204 
		56.288,59.204 58.842,51.7 	"/>
	
		<linearGradient id="XMLID_3_" gradientUnits="userSpaceOnUse" x1="-2935.2495" y1="51.9834" x2="-2927.3931" y2="51.9834" gradientTransform="matrix(-1 0 0 1 -2915.6543 0)">
		<stop  offset="0.017" style="stop-color:#FFC635"/>
		<stop  offset="1" style="stop-color:#FBB040"/>
	</linearGradient>
	<polygon id="XMLID_1709_" fill="url(#XMLID_3_)" points="19.424,44.665 16.871,49.378 19.595,49.378 14.493,59.302 15.77,52.169 
		11.739,52.169 14.292,44.665 	"/>
	
		<linearGradient id="XMLID_4_" gradientUnits="userSpaceOnUse" x1="-2959.0918" y1="55.25" x2="-2951.2354" y2="55.25" gradientTransform="matrix(-1 0 0 1 -2915.6543 0)">
		<stop  offset="0.017" style="stop-color:#FFC635"/>
		<stop  offset="1" style="stop-color:#FBB040"/>
	</linearGradient>
	<polygon id="XMLID_1708_" fill="url(#XMLID_4_)" points="43.267,47.933 40.713,52.645 43.438,52.645 38.336,62.568 39.613,55.436 
		35.581,55.436 38.135,47.933 	"/>
	<path id="XMLID_1707_" fill="#939598" d="M71.651,22.432c0-3.021-2.449-5.47-5.471-5.47c-1.029,0-1.988,0.289-2.811,0.783
		c0.008-0.129,0.02-0.257,0.02-0.388c0-3.835-3.108-6.943-6.943-6.943c-1.388,0-2.678,0.412-3.764,1.114
		c-1.729-3.424-5.278-5.772-9.376-5.772c-5.8,0-10.503,4.702-10.503,10.503c0,0.452,0.033,0.896,0.087,1.332
		c-1.829,0.479-3.364,1.679-4.276,3.285c-3.808,0.031-6.886,3.125-6.886,6.941c0,3.834,3.109,6.942,6.944,6.942
		c0.394,0,0.778-0.041,1.154-0.104c1.088,3.374,4.251,5.816,7.987,5.816c1.753,0,3.378-0.539,4.724-1.457
		c1.398,2.691,4.206,4.533,7.448,4.533c2.986,0,5.602-1.564,7.089-3.912c1.102,0.53,2.33,0.836,3.634,0.836
		c4.636,0,8.394-3.758,8.394-8.393c0-1.629-0.471-3.143-1.272-4.43C70.045,26.949,71.651,24.879,71.651,22.432z"/>
	<g id="XMLID_1702_">
		<g id="XMLID_1704_">
			<radialGradient id="XMLID_5_" cx="39.8613" cy="15.5078" r="0.9565" gradientUnits="userSpaceOnUse">
				<stop  offset="0" style="stop-color:#414042"/>
				<stop  offset="1" style="stop-color:#000000"/>
			</radialGradient>
			<circle id="XMLID_1706_" fill="url(#XMLID_5_)" cx="39.509" cy="15.86" r="0.956"/>
			<radialGradient id="XMLID_6_" cx="52.0791" cy="15.4321" r="0.9567" gradientUnits="userSpaceOnUse">
				<stop  offset="0" style="stop-color:#414042"/>
				<stop  offset="1" style="stop-color:#000000"/>
			</radialGradient>
			<circle id="XMLID_1705_" fill="url(#XMLID_6_)" cx="51.803" cy="15.86" r="0.956"/>
		</g>
		<radialGradient id="XMLID_7_" cx="45.5781" cy="19.5039" r="3.9846" gradientUnits="userSpaceOnUse">
			<stop  offset="0" style="stop-color:#414042"/>
			<stop  offset="1" style="stop-color:#000000"/>
		</radialGradient>
		<rect id="XMLID_1703_" x="43.04" y="19.107" fill="url(#XMLID_7_)" width="5.233" height="0.748"/>
	</g>
	<linearGradient id="XMLID_8_" gradientUnits="userSpaceOnUse" x1="21.7295" y1="30.2549" x2="71.6514" y2="30.2549">
		<stop  offset="0.5257" style="stop-color:#939598"/>
		<stop  offset="1" style="stop-color:#808285"/>
	</linearGradient>
	<path id="XMLID_1701_" fill="url(#XMLID_8_)" d="M71.651,22.432c0-3.021-2.449-5.47-5.471-5.47c-0.996,0-1.927,0.272-2.731,0.739
		c-3.352,7.941-11.21,13.514-20.371,13.514c-7.443,0-14.027-3.68-18.031-9.319c-1.99,1.22-3.318,3.415-3.318,5.92
		c0,3.834,3.109,6.942,6.944,6.942c0.394,0,0.778-0.041,1.154-0.104c1.088,3.374,4.251,5.816,7.987,5.816
		c1.753,0,3.378-0.539,4.724-1.457c1.398,2.691,4.206,4.533,7.448,4.533c2.986,0,5.602-1.564,7.089-3.912
		c1.102,0.53,2.33,0.836,3.634,0.836c4.636,0,8.394-3.758,8.394-8.393c0-1.629-0.471-3.143-1.272-4.43
		C70.045,26.949,71.651,24.879,71.651,22.432z"/>
	<linearGradient id="XMLID_9_" gradientUnits="userSpaceOnUse" x1="21.7295" y1="30.5083" x2="55.6871" y2="30.5083">
		<stop  offset="0" style="stop-color:#FFFFFF"/>
		<stop  offset="1" style="stop-color:#D1D3D4"/>
	</linearGradient>
	<path id="XMLID_1700_" opacity="0.53" fill="url(#XMLID_9_)" d="M63.529,32.471c-0.589,0-1.154,0.086-1.695,0.235
		c-0.529-2.982-3.128-5.249-6.262-5.249c-0.094,0-0.185,0.01-0.277,0.014c-1.072-4.568-5.172-7.971-10.067-7.971
		c-1.384,0-2.703,0.273-3.909,0.766c-1.558-1.718-3.809-2.797-6.311-2.797c-1.617,0-3.123,0.459-4.411,1.241
		c-0.002-0.01-0.005-0.021-0.008-0.031c-0.805,0.58-1.481,1.329-1.974,2.197c-3.808,0.031-6.886,3.125-6.886,6.941
		c0,3.834,3.109,6.942,6.944,6.942c0.394,0,0.778-0.041,1.154-0.104c1.088,3.374,4.251,5.816,7.987,5.816
		c1.753,0,3.378-0.539,4.724-1.457c1.398,2.691,4.206,4.533,7.448,4.533c2.986,0,5.602-1.564,7.089-3.912
		c1.102,0.53,2.33,0.836,3.634,0.836c3.618,0,6.701-2.289,7.88-5.498C67.426,33.453,65.593,32.471,63.529,32.471z"/>
	<radialGradient id="XMLID_10_" cx="13.7871" cy="26.0835" r="31.7351" gradientUnits="userSpaceOnUse">
		<stop  offset="0" style="stop-color:#E6E7E8"/>
		<stop  offset="1" style="stop-color:#939598"/>
	</radialGradient>
	<path id="XMLID_1699_" fill="url(#XMLID_10_)" d="M8.556,23.969c0.025,0,0.049,0.004,0.073,0.004
		c-0.047-0.402-0.073-0.812-0.073-1.227c0-5.854,4.746-10.601,10.601-10.601c5.076,0,9.316,3.569,10.355,8.333
		c1.289-0.782,2.794-1.241,4.411-1.241c4.706,0,8.519,3.814,8.519,8.519c0,0.168-0.015,0.334-0.025,0.5
		c0.408-0.077,0.826-0.121,1.256-0.121c3.712,0,6.72,3.008,6.72,6.721c0,3.711-3.008,6.719-6.72,6.719
		c-0.944,0-1.842-0.196-2.658-0.548c-1.527,1.451-3.587,2.348-5.861,2.348c-0.279,0-0.554-0.017-0.827-0.043
		c-1.563,1.819-3.875,2.976-6.461,2.976c-2.104,0-4.026-0.766-5.511-2.029c-1.452,1.149-3.283,1.841-5.279,1.841
		c-3.506,0-6.515-2.12-7.822-5.146c-0.23,0.02-0.461,0.035-0.697,0.035c-4.705,0-8.519-3.813-8.519-8.519
		C0.037,27.784,3.851,23.969,8.556,23.969z"/>
	<path id="XMLID_1698_" fill="#E6E7E8" d="M28.976,18.749c-1.579-3.873-5.379-6.604-9.819-6.604
		c-5.854,0-10.601,4.747-10.601,10.601c0,0.416,0.026,0.825,0.073,1.227c-0.024,0-0.048-0.004-0.073-0.004
		c-4.705,0-8.519,3.815-8.519,8.519c0,4.705,3.814,8.519,8.519,8.519c0.014,0,0.027-0.001,0.041-0.001
		C19.44,38.906,27.821,29.9,28.976,18.749z"/>
	<linearGradient id="XMLID_11_" gradientUnits="userSpaceOnUse" x1="17.3667" y1="33.3242" x2="41.2989" y2="33.3242">
		<stop  offset="0" style="stop-color:#FFFFFF"/>
		<stop  offset="1" style="stop-color:#D1D3D4"/>
	</linearGradient>
	<path id="XMLID_1697_" opacity="0.44" fill="url(#XMLID_11_)" d="M50.392,34.855c0-3.713-3.008-6.721-6.72-6.721
		c-0.43,0-0.848,0.044-1.256,0.121c0.01-0.166,0.025-0.332,0.025-0.5c0-3.179-1.743-5.949-4.324-7.414
		c-4.146,1.348-7.146,5.242-7.146,9.839c0,1.084,0.168,2.13,0.477,3.112c-2.304,0.958-3.925,3.229-3.925,5.879
		c0,0.512,0.066,1.006,0.18,1.483h-5.389c-2.733,0-4.948,2.215-4.948,4.948l0,0c0,0.171,0.008,0.34,0.025,0.506
		c1.873-0.068,3.587-0.744,4.962-1.833c1.485,1.264,3.407,2.029,5.511,2.029c2.587,0,4.898-1.156,6.461-2.976
		c0.272,0.026,0.547,0.043,0.827,0.043c2.273,0,4.333-0.896,5.861-2.348c0.816,0.352,1.714,0.548,2.658,0.548
		C47.384,41.574,50.392,38.566,50.392,34.855z"/>
	<linearGradient id="XMLID_12_" gradientUnits="userSpaceOnUse" x1="20.1919" y1="36.625" x2="58.1921" y2="36.625">
		<stop  offset="0" style="stop-color:#D1D3D4"/>
		<stop  offset="1" style="stop-color:#FFFFFF"/>
	</linearGradient>
	<path id="XMLID_1696_" fill="url(#XMLID_12_)" d="M68.637,42.061c0.109-0.469,0.175-0.955,0.175-1.456
		c0-3.517-2.852-6.366-6.367-6.366c-0.589,0-1.155,0.086-1.695,0.235c-0.529-2.981-3.129-5.249-6.262-5.249
		c-0.094,0-0.185,0.011-0.277,0.014c-1.073-4.569-5.172-7.971-10.068-7.971c-5.712,0-10.345,4.631-10.345,10.345
		c0,1.085,0.167,2.13,0.478,3.112c-2.304,0.957-3.926,3.229-3.926,5.88c0,0.511,0.067,1.006,0.182,1.482h-5.39
		c-2.733,0-4.949,2.216-4.949,4.948l0,0c0,2.733,2.216,4.948,4.949,4.948h6.508h18.388h17.581c2.769,0,5.013-2.245,5.013-5.014l0,0
		C72.63,44.551,70.917,42.532,68.637,42.061z"/>
	<path id="XMLID_1695_" fill="#E6E7E8" d="M68.637,42.061c0.109-0.469,0.175-0.955,0.175-1.456c0-3.517-2.852-6.366-6.367-6.366
		c-0.589,0-1.155,0.086-1.695,0.235c-0.524-2.957-3.084-5.209-6.183-5.247C54.383,39.2,48.575,47.798,40.18,51.983h9.856h17.581
		c2.769,0,5.013-2.245,5.013-5.014l0,0C72.63,44.551,70.917,42.532,68.637,42.061z"/>
	<path id="XMLID_1694_" fill="#F1F2F2" d="M67.665,38.721c0.343,1.348-1.084,2.453-2.27,1.563c-0.336-0.254-0.57-0.656-0.761-1.047
		c-0.262-0.538-0.479-1.111-0.487-1.646c-0.021-1.556,1.287-1.389,2.391-0.511C67.055,37.492,67.505,38.092,67.665,38.721z"/>
	<path id="XMLID_1693_" fill="#F1F2F2" d="M23.731,43.057c1.329-0.409,2.504,0.96,1.674,2.188c-0.235,0.349-0.627,0.603-1.007,0.812
		c-0.524,0.289-1.086,0.535-1.619,0.569c-1.553,0.099-1.451-1.215-0.629-2.362C22.535,43.727,23.111,43.248,23.731,43.057z"/>
	<path id="XMLID_1692_" fill="#D1D3D4" d="M3.943,26.77c1.329-0.409,2.504,0.959,1.674,2.188C5.381,29.306,4.99,29.561,4.61,29.77
		c-0.524,0.288-1.087,0.534-1.619,0.568c-1.554,0.1-1.451-1.215-0.629-2.361C2.746,27.439,3.323,26.961,3.943,26.77z"/>
	<path id="XMLID_1691_" fill="#A7A9AC" d="M37.735,8.572c1.329-0.41,2.504,0.959,1.674,2.188c-0.236,0.349-0.626,0.602-1.007,0.812
		c-0.523,0.289-1.086,0.535-1.619,0.569c-1.553,0.099-1.451-1.214-0.629-2.361C36.539,9.242,37.115,8.763,37.735,8.572z"/>
	<path id="XMLID_1690_" fill="#FFFFFF" d="M40.931,22.799c1.918-0.432,3.466,1.654,2.185,3.312c-0.363,0.47-0.939,0.788-1.496,1.043
		c-0.767,0.352-1.585,0.638-2.342,0.626c-2.209-0.035-1.952-1.897-0.689-3.439C39.18,23.618,40.037,23,40.931,22.799z"/>
	<path id="XMLID_1689_" fill="#D1D3D4" d="M14.832,14.5c1.918-0.433,3.465,1.654,2.185,3.312c-0.364,0.47-0.939,0.787-1.496,1.042
		c-0.768,0.352-1.586,0.638-2.343,0.626c-2.208-0.035-1.951-1.898-0.689-3.44C13.08,15.319,13.937,14.701,14.832,14.5z"/>
	<path id="XMLID_1688_" fill="#A7A9AC" d="M59.349,12.326c1.555,1.203,0.932,3.725-1.162,3.793c-0.594,0.018-1.205-0.223-1.756-0.49
		c-0.76-0.368-1.503-0.815-1.975-1.407c-1.38-1.725,0.22-2.713,2.212-2.722C57.601,11.496,58.624,11.765,59.349,12.326z"/>
	<g id="XMLID_1678_">
		<g id="XMLID_1685_">
			
				<radialGradient id="XMLID_13_" cx="38.645" cy="83.8105" r="2.1784" gradientTransform="matrix(1 0 0 1.376 -11.6606 -59.4049)" gradientUnits="userSpaceOnUse">
				<stop  offset="0.0428" style="stop-color:#A8E0F9"/>
				<stop  offset="0.6495" style="stop-color:#74D1F6"/>
				<stop  offset="1" style="stop-color:#27A8E0"/>
			</radialGradient>
			<path id="XMLID_1687_" fill="url(#XMLID_13_)" d="M27.496,53.156c-0.08-0.138-0.276-0.138-0.356,0
				c-0.662,1.152-2.799,5.232,0.178,5.232C30.295,58.389,28.159,54.309,27.496,53.156z"/>
			<path id="XMLID_1686_" fill="#F1F2F2" d="M26.053,57.31c0.007-0.36,0.438-0.539,0.673-0.235c0.067,0.086,0.098,0.203,0.118,0.313
				c0.028,0.152,0.045,0.312,0.01,0.444c-0.101,0.391-0.417,0.259-0.632-0.035C26.121,57.658,26.049,57.478,26.053,57.31z"/>
		</g>
		<g id="XMLID_1682_">
			
				<radialGradient id="XMLID_14_" cx="25.8481" cy="-25.8916" r="2.1782" gradientTransform="matrix(1 0 0 1.376 20.4355 93.7386)" gradientUnits="userSpaceOnUse">
				<stop  offset="0.0428" style="stop-color:#A8E0F9"/>
				<stop  offset="0.6495" style="stop-color:#74D1F6"/>
				<stop  offset="1" style="stop-color:#27A8E0"/>
			</radialGradient>
			<path id="XMLID_1684_" fill="url(#XMLID_14_)" d="M46.796,55.354c-0.08-0.138-0.277-0.138-0.355,0
				c-0.663,1.152-2.8,5.232,0.177,5.232C49.595,60.586,47.459,56.506,46.796,55.354z"/>
			<path id="XMLID_1683_" fill="#F1F2F2" d="M45.352,59.507c0.007-0.36,0.439-0.538,0.674-0.235
				c0.067,0.086,0.098,0.203,0.118,0.313c0.029,0.152,0.044,0.312,0.01,0.444c-0.102,0.391-0.416,0.259-0.632-0.035
				C45.42,59.855,45.349,59.675,45.352,59.507z"/>
		</g>
		<g id="XMLID_1679_">
			
				<radialGradient id="XMLID_15_" cx="66.7139" cy="44.8818" r="2.1786" gradientTransform="matrix(1 0 0 1.376 -32.2793 2.1082)" gradientUnits="userSpaceOnUse">
				<stop  offset="0.0428" style="stop-color:#A8E0F9"/>
				<stop  offset="0.6495" style="stop-color:#74D1F6"/>
				<stop  offset="1" style="stop-color:#27A8E0"/>
			</radialGradient>
			<path id="XMLID_1681_" fill="url(#XMLID_15_)" d="M34.947,61.104c-0.079-0.137-0.278-0.137-0.357,0
				c-0.662,1.152-2.798,5.232,0.179,5.232C37.746,66.337,35.609,62.257,34.947,61.104z"/>
			<path id="XMLID_1680_" fill="#F1F2F2" d="M33.503,65.259c0.007-0.36,0.438-0.539,0.674-0.236
				c0.066,0.087,0.098,0.203,0.119,0.313c0.028,0.152,0.043,0.312,0.009,0.445c-0.101,0.39-0.417,0.259-0.632-0.036
				C33.571,65.607,33.5,65.427,33.503,65.259z"/>
		</g>
	</g>
	<g id="XMLID_1671_">
		<g id="XMLID_1676_">
			
				<radialGradient id="XMLID_16_" cx="41.0498" cy="37.1211" r="4.9767" gradientTransform="matrix(0.845 0 0 1 6.9498 0)" gradientUnits="userSpaceOnUse">
				<stop  offset="0" style="stop-color:#414042"/>
				<stop  offset="1" style="stop-color:#000000"/>
			</radialGradient>
			<rect id="XMLID_1677_" x="38.959" y="36.626" fill="url(#XMLID_16_)" width="5.522" height="0.933"/>
		</g>
		<g id="XMLID_1674_">
			
				<radialGradient id="XMLID_17_" cx="47.584" cy="44.5723" r="4.9752" gradientTransform="matrix(0.845 0 0 1 6.9498 0)" gradientUnits="userSpaceOnUse">
				<stop  offset="0" style="stop-color:#414042"/>
				<stop  offset="1" style="stop-color:#000000"/>
			</radialGradient>
			<rect id="XMLID_1675_" x="44.481" y="44.075" fill="url(#XMLID_17_)" width="5.521" height="0.935"/>
		</g>
		<g id="XMLID_1672_">
			
				<radialGradient id="XMLID_18_" cx="55.5098" cy="37.1211" r="4.9752" gradientTransform="matrix(0.845 0 0 1 6.9498 0)" gradientUnits="userSpaceOnUse">
				<stop  offset="0" style="stop-color:#414042"/>
				<stop  offset="1" style="stop-color:#000000"/>
			</radialGradient>
			<rect id="XMLID_1673_" x="51.178" y="36.626" fill="url(#XMLID_18_)" width="5.521" height="0.933"/>
		</g>
	</g>
	<g id="XMLID_1666_">
		<g id="XMLID_1668_">
			<radialGradient id="XMLID_19_" cx="11.9316" cy="27.0518" r="3.5678" gradientUnits="userSpaceOnUse">
				<stop  offset="0" style="stop-color:#414042"/>
				<stop  offset="1" style="stop-color:#000000"/>
			</radialGradient>
			<rect id="XMLID_1670_" x="9.66" y="26.696" fill="url(#XMLID_19_)" width="4.684" height="0.669"/>
			<radialGradient id="XMLID_20_" cx="25.3174" cy="27.0518" r="3.5671" gradientUnits="userSpaceOnUse">
				<stop  offset="0" style="stop-color:#414042"/>
				<stop  offset="1" style="stop-color:#000000"/>
			</radialGradient>
			<rect id="XMLID_1669_" x="23.046" y="26.696" fill="url(#XMLID_20_)" width="4.684" height="0.669"/>
		</g>
		<radialGradient id="XMLID_21_" cx="18.6045" cy="31.9053" r="5.0259" gradientUnits="userSpaceOnUse">
			<stop  offset="0.2927" style="stop-color:#414042"/>
			<stop  offset="1" style="stop-color:#000000"/>
		</radialGradient>
		<path id="XMLID_1667_" fill="url(#XMLID_21_)" d="M18.695,33.325c1.672,0,3.028-1.356,3.028-3.028h-6.057
			C15.667,31.969,17.022,33.325,18.695,33.325z"/>
	</g>
</g>
</svg>
