<?xml version="1.0" encoding="utf-8"?>
<!-- Generator: Adobe Illustrator 16.0.0, SVG Export Plug-In . SVG Version: 6.00 Build 0)  -->
<!DOCTYPE svg PUBLIC "-//W3C//DTD SVG 1.1//EN" "http://www.w3.org/Graphics/SVG/1.1/DTD/svg11.dtd">
<svg version="1.1" id="Layer_1" xmlns="http://www.w3.org/2000/svg" xmlns:xlink="http://www.w3.org/1999/xlink" x="0px" y="0px"
	 width="72.667px" height="72px" viewBox="0 0 72.667 72" enable-background="new 0 0 72.667 72" xml:space="preserve">
<g id="XMLID_1248_">
	<radialGradient id="XMLID_2_" cx="35.4971" cy="36" r="33.5692" gradientUnits="userSpaceOnUse">
		<stop  offset="0.0206" style="stop-color:#D7F0FC"/>
		<stop  offset="0.3666" style="stop-color:#ABE1FA"/>
		<stop  offset="0.8752" style="stop-color:#74C0EB"/>
	</radialGradient>
	<path id="XMLID_1253_" fill="url(#XMLID_2_)" d="M66.646,52.616L66.646,52.616l-2.813-6.242c-0.236-0.526-0.813-0.797-1.371-0.644
		L57.41,47.13l-3.863-2.187l5.523-1.53c0.617-0.171,0.98-0.813,0.809-1.431s-0.813-0.981-1.43-0.811l-7.766,2.151l-1.469-0.831
		l1.422-2.511c0.316-0.559,0.119-1.27-0.439-1.585c-0.27-0.153-0.584-0.192-0.883-0.109c-0.301,0.083-0.549,0.277-0.701,0.548
		l-1.422,2.511l-1.438-0.813L45.75,31.48l1.395-0.805l1.443,2.497c0.207,0.358,0.592,0.581,1.006,0.581h0.002
		c0.203,0,0.404-0.054,0.58-0.155c0.27-0.155,0.461-0.407,0.541-0.707s0.039-0.613-0.115-0.882l-1.445-2.498l1.588-0.917
		l7.588,2.031c0.098,0.026,0.199,0.039,0.301,0.039c0.525,0,0.986-0.354,1.121-0.862c0.08-0.3,0.039-0.613-0.115-0.882
		c-0.156-0.27-0.406-0.462-0.707-0.542l-5.34-1.429l3.719-2.15l5.064,1.355c0.1,0.026,0.199,0.04,0.303,0.04
		c0.461,0,0.877-0.273,1.063-0.695l2.758-6.268c0.148-0.338,0.127-0.731-0.057-1.05c-0.186-0.319-0.516-0.534-0.883-0.574
		l-6.807-0.741c-0.574-0.063-1.1,0.298-1.248,0.855l-1.357,5.064l-3.842,2.222l1.48-5.536c0.08-0.3,0.039-0.613-0.117-0.883
		c-0.154-0.269-0.406-0.461-0.705-0.541c-0.301-0.08-0.615-0.04-0.883,0.116c-0.27,0.156-0.463,0.407-0.541,0.707l-2.084,7.783
		l-1.461,0.845L46.551,25c-0.156-0.27-0.406-0.462-0.707-0.541c-0.299-0.081-0.613-0.039-0.881,0.116
		c-0.27,0.155-0.463,0.405-0.543,0.706c-0.08,0.3-0.037,0.613,0.117,0.882l1.443,2.498l-1.357,0.784l-7.932-4.574L36.69,23.22
		l2.885-0.001c0.642,0,1.162-0.522,1.162-1.163c-0.001-0.642-0.521-1.163-1.162-1.163l0,0l-2.886,0.002l-0.001-1.832l5.551-5.556
		c0.22-0.22,0.341-0.512,0.34-0.823c0-0.311-0.12-0.603-0.34-0.822c-0.22-0.219-0.512-0.339-0.822-0.339h-0.001
		c-0.311,0-0.603,0.121-0.821,0.341l-3.907,3.911l-0.003-4.297l3.706-3.709c0.408-0.408,0.457-1.043,0.115-1.509l-4.051-5.521
		c-0.219-0.297-0.568-0.475-0.938-0.475h-0.001c-0.368,0-0.719,0.178-0.938,0.476l-4.046,5.525
		c-0.341,0.466-0.291,1.101,0.117,1.509l3.709,3.706l0.002,4.44l-4.054-4.05c-0.22-0.22-0.512-0.341-0.822-0.341l0,0
		c-0.312,0-0.604,0.122-0.822,0.341c-0.22,0.22-0.341,0.512-0.341,0.822s0.121,0.604,0.341,0.822l5.699,5.694l0.001,1.689
		l-2.885,0.001c-0.311,0-0.603,0.121-0.822,0.341c-0.22,0.221-0.34,0.513-0.34,0.823c0,0.641,0.521,1.161,1.162,1.161h0.001
		l2.885-0.001l0.001,1.651l-8.053,4.654l-1.363-0.772l1.421-2.51c0.153-0.271,0.192-0.584,0.109-0.884
		c-0.083-0.299-0.278-0.549-0.548-0.701c-0.271-0.153-0.584-0.192-0.884-0.108c-0.3,0.082-0.548,0.277-0.701,0.548l-1.422,2.511
		l-1.469-0.832l-2.151-7.764c-0.171-0.618-0.813-0.981-1.432-0.81c-0.618,0.171-0.981,0.813-0.81,1.431l1.53,5.523L14.73,22.97
		l-1.4-5.053c-0.152-0.55-0.693-0.913-1.257-0.844l-6.801,0.802c-0.366,0.043-0.694,0.261-0.875,0.582
		c-0.182,0.321-0.201,0.714-0.049,1.05l2.812,6.243c0.188,0.417,0.604,0.687,1.061,0.687h0c0.104,0,0.209-0.016,0.309-0.043
		l5.053-1.4l3.739,2.117l-5.328,1.477c-0.618,0.171-0.981,0.813-0.81,1.431c0.139,0.502,0.6,0.853,1.12,0.853h0.001
		c0.105,0,0.209-0.015,0.311-0.043l7.569-2.097l1.593,0.902l-1.421,2.51c-0.152,0.271-0.191,0.585-0.108,0.884
		c0.083,0.3,0.277,0.549,0.548,0.701c0.174,0.1,0.372,0.151,0.572,0.151c0.418,0,0.806-0.227,1.012-0.59l1.421-2.511l1.509,0.854
		l0.005,8.971l-1.466,0.847l-1.443-2.499c-0.156-0.269-0.406-0.461-0.706-0.541s-0.614-0.039-0.883,0.117
		c-0.269,0.155-0.461,0.405-0.542,0.706c-0.08,0.3-0.039,0.613,0.117,0.882l1.443,2.498l-1.461,0.845l-7.782-2.082
		c-0.3-0.081-0.613-0.039-0.882,0.116c-0.27,0.155-0.462,0.406-0.542,0.706c-0.081,0.3-0.04,0.613,0.116,0.883
		c0.155,0.27,0.406,0.461,0.706,0.541l5.536,1.481l-3.844,2.222l-5.064-1.355c-0.559-0.15-1.132,0.125-1.365,0.655l-2.757,6.269
		c-0.148,0.338-0.127,0.729,0.058,1.05c0.184,0.319,0.513,0.533,0.881,0.574l6.808,0.741c0.57,0.06,1.101-0.308,1.249-0.855
		l1.354-5.064l3.721-2.149l-1.429,5.34c-0.08,0.301-0.039,0.614,0.116,0.883c0.155,0.27,0.406,0.462,0.707,0.541
		c0.098,0.027,0.2,0.04,0.301,0.04c0.525,0,0.987-0.354,1.122-0.862l2.03-7.588L23,44.626l1.444,2.498
		c0.206,0.358,0.593,0.581,1.008,0.581l0,0c0.203,0,0.403-0.054,0.58-0.155c0.269-0.156,0.461-0.406,0.542-0.707
		c0.08-0.3,0.039-0.613-0.116-0.883l-1.443-2.497l1.5-0.867l7.861,4.534v1.65l-2.885,0.001c-0.311,0-0.603,0.121-0.821,0.341
		c-0.22,0.22-0.341,0.512-0.341,0.823c0,0.641,0.521,1.162,1.163,1.162h0.001l2.884-0.002l0.002,1.689l-5.695,5.699
		c-0.219,0.22-0.341,0.511-0.34,0.822c0,0.311,0.121,0.603,0.341,0.821c0.22,0.22,0.512,0.341,0.822,0.341l0,0
		c0.311,0,0.603-0.121,0.822-0.341l4.051-4.054l0.001,4.438l-3.704,3.709c-0.409,0.409-0.458,1.044-0.115,1.51l4.05,5.521
		c0.219,0.297,0.569,0.475,0.938,0.475l0,0c0.37,0,0.721-0.178,0.938-0.476l4.045-5.524c0.342-0.467,0.293-1.102-0.115-1.51
		l-3.709-3.705l-0.002-4.297l3.91,3.907c0.22,0.219,0.512,0.34,0.822,0.34s0.603-0.121,0.822-0.341s0.341-0.512,0.34-0.822
		c0-0.311-0.121-0.603-0.341-0.822l-5.557-5.551v-1.831l2.885-0.002c0.311,0,0.603-0.121,0.821-0.341
		c0.221-0.22,0.341-0.512,0.341-0.823c0-0.64-0.521-1.161-1.162-1.161h-0.001l-2.885,0.001l-0.001-1.651l7.911-4.571l1.436,0.813
		l-1.422,2.511c-0.154,0.27-0.191,0.584-0.109,0.883c0.084,0.299,0.277,0.549,0.547,0.701c0.176,0.099,0.373,0.151,0.574,0.151
		c0.418,0,0.807-0.227,1.012-0.591l1.422-2.51l1.594,0.901l2.096,7.57c0.141,0.501,0.6,0.852,1.121,0.852l0,0
		c0.105,0,0.209-0.015,0.311-0.042c0.617-0.172,0.98-0.813,0.811-1.431l-1.477-5.329l3.738,2.117l1.4,5.053
		c0.139,0.502,0.6,0.853,1.119,0.853h0.002c0.045,0,0.09-0.003,0.137-0.009l6.799-0.801c0.367-0.044,0.695-0.261,0.877-0.582
		S66.797,52.953,66.646,52.616z M63.873,52.125l-4.234,0.5l-0.951-3.435l3.436-0.952L63.873,52.125z M58.57,22.73l0.922-3.444
		l4.238,0.461l-1.717,3.902L58.57,22.73z M38.041,6.831l-2.52,2.521L33,6.833l2.519-3.439L38.041,6.831z M33.026,65.17l2.52-2.522
		l2.521,2.52l-2.519,3.44L33.026,65.17z M12.307,22.935l-3.435,0.951l-1.751-3.888l4.234-0.499L12.307,22.935z M12.424,49.395
		l-0.921,3.443l-4.239-0.462l1.717-3.902L12.424,49.395z"/>
	<g id="XMLID_1249_">
		<radialGradient id="XMLID_3_" cx="28.6104" cy="34.3228" r="1.1363" gradientUnits="userSpaceOnUse">
			<stop  offset="0" style="stop-color:#414042"/>
			<stop  offset="1" style="stop-color:#000000"/>
		</radialGradient>
		<circle id="XMLID_1252_" fill="url(#XMLID_3_)" cx="28.192" cy="34.741" r="1.136"/>
		<radialGradient id="XMLID_4_" cx="43.1318" cy="34.2334" r="1.1362" gradientUnits="userSpaceOnUse">
			<stop  offset="0" style="stop-color:#414042"/>
			<stop  offset="1" style="stop-color:#000000"/>
		</radialGradient>
		<circle id="XMLID_1251_" fill="url(#XMLID_4_)" cx="42.803" cy="34.741" r="1.136"/>
		<radialGradient id="XMLID_5_" cx="35.437" cy="40.5986" r="3.3295" gradientUnits="userSpaceOnUse">
			<stop  offset="0.2927" style="stop-color:#414042"/>
			<stop  offset="1" style="stop-color:#000000"/>
		</radialGradient>
		<path id="XMLID_1250_" fill="url(#XMLID_5_)" d="M35.498,41.539c1.108,0,2.006-0.897,2.006-2.006h-4.013
			C33.491,40.642,34.389,41.539,35.498,41.539z"/>
	</g>
</g>
</svg>
