<?xml version="1.0" encoding="utf-8"?>
<!-- Generator: Adobe Illustrator 16.0.0, SVG Export Plug-In . SVG Version: 6.00 Build 0)  -->
<!DOCTYPE svg PUBLIC "-//W3C//DTD SVG 1.1//EN" "http://www.w3.org/Graphics/SVG/1.1/DTD/svg11.dtd">
<svg version="1.1" id="Layer_1" xmlns="http://www.w3.org/2000/svg" xmlns:xlink="http://www.w3.org/1999/xlink" x="0px" y="0px"
	 width="72.667px" height="72px" viewBox="0 0 72.667 72" enable-background="new 0 0 72.667 72" xml:space="preserve">
<g id="XMLID_1235_">
	<radialGradient id="XMLID_2_" cx="35.3662" cy="39.3311" r="61.6183" gradientUnits="userSpaceOnUse">
		<stop  offset="0" style="stop-color:#27A8E0"/>
		<stop  offset="0.5682" style="stop-color:#74D1F6"/>
		<stop  offset="0.775" style="stop-color:#A8E0F9"/>
		<stop  offset="0.9916" style="stop-color:#D1EEFC"/>
	</radialGradient>
	<path id="XMLID_1247_" fill="url(#XMLID_2_)" d="M61.985,28.918c-2.929-2.928-6.163-5.285-9.52-7.053
		c-0.003-0.003-0.003-0.007-0.007-0.01c0,0.002,0,0.005,0,0.008c-10.773-5.669-22.818-5.24-30.106,2.049
		c-3.816,3.815-5.751,8.935-5.916,14.492c-3.359-1.768-6.594-4.126-9.524-7.056c-2.845-2.845-5.151-5.979-6.901-9.234
		c-0.246,8.366,3.517,17.727,10.922,25.132c2.928,2.928,6.162,5.286,9.519,7.053c0.001,0.003,0.003,0.007,0.005,0.01
		c0-0.002,0-0.005,0-0.007c10.775,5.668,22.818,5.24,30.108-2.05c3.814-3.815,5.75-8.935,5.915-14.492
		c3.359,1.768,6.594,4.126,9.524,7.055c2.845,2.846,5.152,5.98,6.901,9.235C73.152,45.683,69.389,36.323,61.985,28.918z"/>
	<radialGradient id="XMLID_3_" cx="35.3994" cy="39.3271" r="60.0834" gradientUnits="userSpaceOnUse">
		<stop  offset="0" style="stop-color:#27A8E0"/>
		<stop  offset="0.5682" style="stop-color:#74D1F6"/>
		<stop  offset="0.775" style="stop-color:#A8E0F9"/>
		<stop  offset="0.9916" style="stop-color:#D1EEFC"/>
	</radialGradient>
	<path id="XMLID_1246_" opacity="0.3" fill="url(#XMLID_3_)" d="M66.005,44.814c2.286,2.286,4.223,4.759,5.804,7.331
		c-0.43-7.2-3.548-14.922-9.261-21.471c-2.722-3.121-5.788-5.693-9.017-7.683c-0.002-0.004-0.004-0.007-0.006-0.011
		c0,0.002,0,0.005,0,0.007c-7.279-4.486-15.389-6.014-22.261-4.179c-2.707,0.738-5.208,1.976-7.381,3.729
		c-0.049,0.04-0.098,0.079-0.147,0.119c-0.025,0.021-0.051,0.043-0.077,0.064c-0.104,0.087-0.208,0.175-0.311,0.265
		c-2.895,2.525-4.883,5.775-5.984,9.436c-0.559,1.903-0.867,3.913-0.928,5.983c-3.359-1.768-6.594-4.126-9.524-7.056
		c-2.286-2.285-4.223-4.758-5.804-7.33c0.43,7.2,3.546,14.922,9.26,21.471c2.723,3.12,5.789,5.692,9.018,7.684
		c0.001,0.003,0.003,0.007,0.004,0.011c0-0.002,0-0.005,0.001-0.008c7.279,4.486,15.388,6.015,22.262,4.179
		c2.705-0.738,5.206-1.975,7.378-3.728c0.049-0.04,0.1-0.08,0.148-0.12c0.025-0.021,0.05-0.041,0.074-0.063
		c0.106-0.088,0.21-0.176,0.313-0.267c2.896-2.525,4.883-5.775,5.984-9.435c0.56-1.904,0.867-3.913,0.928-5.983
		C59.84,39.527,63.074,41.886,66.005,44.814z"/>
	<radialGradient id="XMLID_4_" cx="36.5479" cy="38.7988" r="37.5915" gradientUnits="userSpaceOnUse">
		<stop  offset="0" style="stop-color:#27A8E0"/>
		<stop  offset="0.5682" style="stop-color:#74D1F6"/>
		<stop  offset="0.775" style="stop-color:#A8E0F9"/>
		<stop  offset="0.9916" style="stop-color:#D1EEFC"/>
	</radialGradient>
	<circle id="XMLID_1245_" fill="url(#XMLID_4_)" cx="36.459" cy="38.082" r="18.402"/>
	<radialGradient id="XMLID_5_" cx="36.543" cy="38.7617" r="35.6365" gradientUnits="userSpaceOnUse">
		<stop  offset="0" style="stop-color:#27A8E0"/>
		<stop  offset="0.5682" style="stop-color:#74D1F6"/>
		<stop  offset="0.775" style="stop-color:#A8E0F9"/>
		<stop  offset="0.9916" style="stop-color:#D1EEFC"/>
	</radialGradient>
	<circle id="XMLID_1244_" fill="url(#XMLID_5_)" cx="36.459" cy="38.082" r="17.446"/>
	<radialGradient id="XMLID_6_" cx="36.5005" cy="38.4258" r="18.0243" gradientUnits="userSpaceOnUse">
		<stop  offset="0.0084" style="stop-color:#D1EEFC"/>
		<stop  offset="0.225" style="stop-color:#A8E0F9"/>
		<stop  offset="0.4318" style="stop-color:#74D1F6"/>
		<stop  offset="1" style="stop-color:#27A8E0"/>
	</radialGradient>
	<circle id="XMLID_1243_" fill="url(#XMLID_6_)" cx="36.458" cy="38.082" r="8.823"/>
	<radialGradient id="XMLID_7_" cx="28.9951" cy="39.166" r="28.5891" gradientUnits="userSpaceOnUse">
		<stop  offset="0.0428" style="stop-color:#A8E0F9"/>
		<stop  offset="0.6495" style="stop-color:#74D1F6"/>
		<stop  offset="1" style="stop-color:#27A8E0"/>
	</radialGradient>
	<path id="XMLID_1242_" fill="url(#XMLID_7_)" d="M25.286,38.082c0-8.564,6.171-15.686,14.309-17.164
		c-1.017-0.185-2.066-0.282-3.136-0.282c-9.635,0-17.445,7.811-17.445,17.445s7.81,17.445,17.445,17.445
		c1.07,0,2.119-0.097,3.136-0.281C31.457,53.769,25.286,46.646,25.286,38.082z"/>
	<radialGradient id="XMLID_8_" cx="35.936" cy="45.8291" r="29.9438" gradientUnits="userSpaceOnUse">
		<stop  offset="0.0428" style="stop-color:#A8E0F9"/>
		<stop  offset="1" style="stop-color:#27A8E0"/>
	</radialGradient>
	<path id="XMLID_1241_" opacity="0.28" fill="url(#XMLID_8_)" d="M36.458,49.053c-8.528,0-15.626-6.12-17.144-14.208
		c-0.197,1.048-0.302,2.13-0.302,3.237c0,9.635,7.81,17.445,17.445,17.445c9.634,0,17.446-7.811,17.446-17.445
		c0-1.106-0.104-2.188-0.301-3.237C52.086,42.933,44.986,49.053,36.458,49.053z"/>
	<radialGradient id="XMLID_9_" cx="45.8115" cy="27.272" r="32.3316" gradientUnits="userSpaceOnUse">
		<stop  offset="0.0428" style="stop-color:#A8E0F9"/>
		<stop  offset="1" style="stop-color:#27A8E0"/>
	</radialGradient>
	<path id="XMLID_1240_" opacity="0.28" fill="url(#XMLID_9_)" d="M36.458,20.637c-5.724,0-10.803,2.756-13.983,7.013
		c2.78-1.873,6.129-2.967,9.735-2.967c9.636,0,17.445,7.81,17.445,17.445c0,3.911-1.287,7.522-3.462,10.432
		c4.652-3.134,7.711-8.448,7.711-14.478C53.904,28.447,46.093,20.637,36.458,20.637z"/>
	<g id="XMLID_1236_">
		<radialGradient id="XMLID_10_" cx="27.374" cy="31.6221" r="1.4988" gradientUnits="userSpaceOnUse">
			<stop  offset="0" style="stop-color:#414042"/>
			<stop  offset="1" style="stop-color:#000000"/>
		</radialGradient>
		<circle id="XMLID_1239_" fill="url(#XMLID_10_)" cx="26.821" cy="32.175" r="1.499"/>
		<radialGradient id="XMLID_11_" cx="46.5303" cy="31.5034" r="1.4992" gradientUnits="userSpaceOnUse">
			<stop  offset="0" style="stop-color:#414042"/>
			<stop  offset="1" style="stop-color:#000000"/>
		</radialGradient>
		<circle id="XMLID_1238_" fill="url(#XMLID_11_)" cx="46.097" cy="32.175" r="1.499"/>
		<radialGradient id="XMLID_12_" cx="36.8467" cy="40.9111" r="3.1618" gradientUnits="userSpaceOnUse">
			<stop  offset="0" style="stop-color:#414042"/>
			<stop  offset="1" style="stop-color:#000000"/>
		</radialGradient>
		<circle id="XMLID_1237_" fill="url(#XMLID_12_)" cx="35.931" cy="42.326" r="3.161"/>
	</g>
</g>
</svg>
